<?plantuml 1.2026.1?><svg xmlns="http://www.w3.org/2000/svg" xmlns:xlink="http://www.w3.org/1999/xlink" contentStyleType="text/css" data-diagram-type="DESCRIPTION" height="1016px" preserveAspectRatio="none" style="width:1299px;height:1016px;background:#FFFFFF;" version="1.1" viewBox="0 0 1299 1016" width="1299px" zoomAndPan="magnify"><defs/><g><!--cluster ScreenLayer--><g class="cluster" data-qualified-name="ScreenLayer" data-source-line="8" id="ent0003"><rect fill="none" height="203.59" rx="2.5" ry="2.5" style="stroke:#181818;stroke-width:1;" width="385" x="7" y="106.8"/><text fill="#000000" font-family="sans-serif" font-size="14" font-weight="bold" lengthAdjust="spacing" textLength="125.7813" x="136.6094" y="121.7951">Camada de Tela</text></g><!--cluster FeatureLayer--><g class="cluster" data-qualified-name="FeatureLayer" data-source-line="14" id="ent0007"><rect fill="none" height="334.34" rx="2.5" ry="2.5" style="stroke:#181818;stroke-width:1;" width="675" x="25" y="334.39"/><text fill="#000000" font-family="sans-serif" font-size="14" font-weight="bold" lengthAdjust="spacing" textLength="408.1055" x="158.4473" y="349.3851">Camada de Feature (Dom&#237;nio + Estado de Servidor)</text></g><!--cluster ApplicationLayer--><g class="cluster" data-qualified-name="ApplicationLayer" data-source-line="22" id="ent0013"><rect fill="none" height="555.08" rx="2.5" ry="2.5" style="stroke:#181818;stroke-width:1;" width="479" x="724" y="334.39"/><text fill="#000000" font-family="sans-serif" font-size="14" font-weight="bold" lengthAdjust="spacing" textLength="311.4795" x="807.7603" y="349.3851">Camada de Application (Infraestrutura)</text></g><!--cluster ExternalLayer--><g class="cluster" data-qualified-name="ExternalLayer" data-source-line="31" id="ent0020"><rect fill="none" height="97.3" rx="2.5" ry="2.5" style="stroke:#181818;stroke-width:1;" width="844" x="449" y="913.47"/><text fill="#000000" font-family="sans-serif" font-size="14" font-weight="bold" lengthAdjust="spacing" textLength="146.248" x="797.876" y="928.4651">Sistemas Externos</text></g><!--entity Screens--><g class="entity" data-qualified-name="ScreenLayer.Screens" data-source-line="9" id="ent0004"><rect fill="#F1F1F1" height="46.2969" rx="2.5" ry="2.5" style="stroke:#181818;stroke-width:0.5;" width="76.9277" x="170.54" y="141.8"/><rect fill="#F1F1F1" height="10" style="stroke:#181818;stroke-width:0.5;" width="15" x="227.4677" y="146.8"/><rect fill="#F1F1F1" height="2" style="stroke:#181818;stroke-width:0.5;" width="4" x="225.4677" y="148.8"/><rect fill="#F1F1F1" height="2" style="stroke:#181818;stroke-width:0.5;" width="4" x="225.4677" y="152.8"/><text fill="#000000" font-family="sans-serif" font-size="14" lengthAdjust="spacing" textLength="36.9277" x="185.54" y="174.7951">Telas</text></g><!--entity UIComponents--><g class="entity" data-qualified-name="ScreenLayer.UIComponents" data-source-line="10" id="ent0005"><rect fill="#F1F1F1" height="46.2969" rx="2.5" ry="2.5" style="stroke:#181818;stroke-width:0.5;" width="177.9629" x="23.02" y="248.1"/><rect fill="#F1F1F1" height="10" style="stroke:#181818;stroke-width:0.5;" width="15" x="180.9829" y="253.1"/><rect fill="#F1F1F1" height="2" style="stroke:#181818;stroke-width:0.5;" width="4" x="178.9829" y="255.1"/><rect fill="#F1F1F1" height="2" style="stroke:#181818;stroke-width:0.5;" width="4" x="178.9829" y="259.1"/><text fill="#000000" font-family="sans-serif" font-size="14" lengthAdjust="spacing" textLength="137.9629" x="38.02" y="281.0951">Componentes de UI</text></g><!--entity ScreenHooks--><g class="entity" data-qualified-name="ScreenLayer.ScreenHooks" data-source-line="11" id="ent0006"><rect fill="#F1F1F1" height="46.2969" rx="2.5" ry="2.5" style="stroke:#181818;stroke-width:0.5;" width="139.0938" x="236.45" y="248.1"/><rect fill="#F1F1F1" height="10" style="stroke:#181818;stroke-width:0.5;" width="15" x="355.5438" y="253.1"/><rect fill="#F1F1F1" height="2" style="stroke:#181818;stroke-width:0.5;" width="4" x="353.5438" y="255.1"/><rect fill="#F1F1F1" height="2" style="stroke:#181818;stroke-width:0.5;" width="4" x="353.5438" y="259.1"/><text fill="#000000" font-family="sans-serif" font-size="14" lengthAdjust="spacing" textLength="99.0938" x="251.45" y="281.0951">Hooks de Tela</text></g><!--entity FeatureHooks--><g class="entity" data-qualified-name="FeatureLayer.FeatureHooks" data-source-line="15" id="ent0008"><rect fill="#F1F1F1" height="46.2969" rx="2.5" ry="2.5" style="stroke:#181818;stroke-width:0.5;" width="163.4365" x="224.28" y="369.39"/><rect fill="#F1F1F1" height="10" style="stroke:#181818;stroke-width:0.5;" width="15" x="367.7165" y="374.39"/><rect fill="#F1F1F1" height="2" style="stroke:#181818;stroke-width:0.5;" width="4" x="365.7165" y="376.39"/><rect fill="#F1F1F1" height="2" style="stroke:#181818;stroke-width:0.5;" width="4" x="365.7165" y="380.39"/><text fill="#000000" font-family="sans-serif" font-size="14" lengthAdjust="spacing" textLength="123.4365" x="239.28" y="402.3851">Hooks de Feature</text></g><!--entity BusinessRules--><g class="entity" data-qualified-name="FeatureLayer.BusinessRules" data-source-line="16" id="ent0009"><rect fill="#F1F1F1" height="46.2969" rx="2.5" ry="2.5" style="stroke:#181818;stroke-width:0.5;" width="171.9473" x="41.03" y="483.84"/><rect fill="#F1F1F1" height="10" style="stroke:#181818;stroke-width:0.5;" width="15" x="192.9773" y="488.84"/><rect fill="#F1F1F1" height="2" style="stroke:#181818;stroke-width:0.5;" width="4" x="190.9773" y="490.84"/><rect fill="#F1F1F1" height="2" style="stroke:#181818;stroke-width:0.5;" width="4" x="190.9773" y="494.84"/><text fill="#000000" font-family="sans-serif" font-size="14" lengthAdjust="spacing" textLength="131.9473" x="56.03" y="516.8351">Regras de Neg&#243;cio</text></g><!--entity Validations--><g class="entity" data-qualified-name="FeatureLayer.Validations" data-source-line="17" id="ent0010"><rect fill="#F1F1F1" height="46.2969" rx="2.5" ry="2.5" style="stroke:#181818;stroke-width:0.5;" width="115.5713" x="248.21" y="483.84"/><rect fill="#F1F1F1" height="10" style="stroke:#181818;stroke-width:0.5;" width="15" x="343.7813" y="488.84"/><rect fill="#F1F1F1" height="2" style="stroke:#181818;stroke-width:0.5;" width="4" x="341.7813" y="490.84"/><rect fill="#F1F1F1" height="2" style="stroke:#181818;stroke-width:0.5;" width="4" x="341.7813" y="494.84"/><text fill="#000000" font-family="sans-serif" font-size="14" lengthAdjust="spacing" textLength="75.5713" x="263.21" y="516.8351">Valida&#231;&#245;es</text></g><!--entity TanStackQuery--><g class="entity" data-qualified-name="FeatureLayer.TanStackQuery" data-source-line="18" id="ent0011"><rect fill="#F1F1F1" height="62.5938" rx="2.5" ry="2.5" style="stroke:#181818;stroke-width:0.5;" width="285.1777" x="398.41" y="475.69"/><rect fill="#F1F1F1" height="10" style="stroke:#181818;stroke-width:0.5;" width="15" x="663.5877" y="480.69"/><rect fill="#F1F1F1" height="2" style="stroke:#181818;stroke-width:0.5;" width="4" x="661.5877" y="482.69"/><rect fill="#F1F1F1" height="2" style="stroke:#181818;stroke-width:0.5;" width="4" x="661.5877" y="486.69"/><text fill="#000000" font-family="sans-serif" font-size="14" lengthAdjust="spacing" textLength="245.1777" x="413.41" y="508.6851">Gerenciador de Estado de Servidor</text><text fill="#000000" font-family="sans-serif" font-size="14" lengthAdjust="spacing" textLength="122.6846" x="413.41" y="524.982">(TanStack Query)</text></g><!--entity FeatureServices--><g class="entity" data-qualified-name="FeatureLayer.FeatureServices" data-source-line="19" id="ent0012"><rect fill="#F1F1F1" height="46.2969" rx="2.5" ry="2.5" style="stroke:#181818;stroke-width:0.5;" width="179.3301" x="477.33" y="606.43"/><rect fill="#F1F1F1" height="10" style="stroke:#181818;stroke-width:0.5;" width="15" x="636.6601" y="611.43"/><rect fill="#F1F1F1" height="2" style="stroke:#181818;stroke-width:0.5;" width="4" x="634.6601" y="613.43"/><rect fill="#F1F1F1" height="2" style="stroke:#181818;stroke-width:0.5;" width="4" x="634.6601" y="617.43"/><text fill="#000000" font-family="sans-serif" font-size="14" lengthAdjust="spacing" textLength="139.3301" x="492.33" y="639.4251">Servi&#231;os da Feature</text></g><!--entity Actions--><g class="entity" data-qualified-name="ApplicationLayer.Actions" data-source-line="23" id="ent0014"><rect fill="#F1F1F1" height="46.2969" rx="2.5" ry="2.5" style="stroke:#181818;stroke-width:0.5;" width="147.3926" x="807.3" y="720.88"/><rect fill="#F1F1F1" height="10" style="stroke:#181818;stroke-width:0.5;" width="15" x="934.6926" y="725.88"/><rect fill="#F1F1F1" height="2" style="stroke:#181818;stroke-width:0.5;" width="4" x="932.6926" y="727.88"/><rect fill="#F1F1F1" height="2" style="stroke:#181818;stroke-width:0.5;" width="4" x="932.6926" y="731.88"/><text fill="#000000" font-family="sans-serif" font-size="14" lengthAdjust="spacing" textLength="107.3926" x="822.3" y="753.8751">A&#231;&#245;es T&#233;cnicas</text></g><!--entity ApiClient--><g class="entity" data-qualified-name="ApplicationLayer.ApiClient" data-source-line="24" id="ent0015"><rect fill="#F1F1F1" height="46.2969" rx="2.5" ry="2.5" style="stroke:#181818;stroke-width:0.5;" width="137.6924" x="740.15" y="827.18"/><rect fill="#F1F1F1" height="10" style="stroke:#181818;stroke-width:0.5;" width="15" x="857.8424" y="832.18"/><rect fill="#F1F1F1" height="2" style="stroke:#181818;stroke-width:0.5;" width="4" x="855.8424" y="834.18"/><rect fill="#F1F1F1" height="2" style="stroke:#181818;stroke-width:0.5;" width="4" x="855.8424" y="838.18"/><text fill="#000000" font-family="sans-serif" font-size="14" lengthAdjust="spacing" textLength="97.6924" x="755.15" y="860.1751">Cliente de API</text></g><!--entity ReduxStore--><g class="entity" data-qualified-name="ApplicationLayer.ReduxStore" data-source-line="25" id="ent0016"><rect fill="#F1F1F1" height="62.5938" rx="2.5" ry="2.5" style="stroke:#181818;stroke-width:0.5;" width="230.4971" x="739.75" y="475.69"/><rect fill="#F1F1F1" height="10" style="stroke:#181818;stroke-width:0.5;" width="15" x="950.2471" y="480.69"/><rect fill="#F1F1F1" height="2" style="stroke:#181818;stroke-width:0.5;" width="4" x="948.2471" y="482.69"/><rect fill="#F1F1F1" height="2" style="stroke:#181818;stroke-width:0.5;" width="4" x="948.2471" y="486.69"/><text fill="#000000" font-family="sans-serif" font-size="14" lengthAdjust="spacing" textLength="190.4971" x="754.75" y="508.6851">Estado Global da Aplica&#231;&#227;o</text><text fill="#000000" font-family="sans-serif" font-size="14" lengthAdjust="spacing" textLength="55.3096" x="754.75" y="524.982">(Redux)</text></g><!--entity ReduxSaga--><g class="entity" data-qualified-name="ApplicationLayer.ReduxSaga" data-source-line="26" id="ent0017"><rect fill="#F1F1F1" height="62.5938" rx="2.5" ry="2.5" style="stroke:#181818;stroke-width:0.5;" width="282.3818" x="739.81" y="598.29"/><rect fill="#F1F1F1" height="10" style="stroke:#181818;stroke-width:0.5;" width="15" x="1002.1918" y="603.29"/><rect fill="#F1F1F1" height="2" style="stroke:#181818;stroke-width:0.5;" width="4" x="1000.1918" y="605.29"/><rect fill="#F1F1F1" height="2" style="stroke:#181818;stroke-width:0.5;" width="4" x="1000.1918" y="609.29"/><text fill="#000000" font-family="sans-serif" font-size="14" lengthAdjust="spacing" textLength="242.3818" x="754.81" y="631.2851">Orquestrador de Efeitos Colaterais</text><text fill="#000000" font-family="sans-serif" font-size="14" lengthAdjust="spacing" textLength="94.6914" x="754.81" y="647.582">(Redux Saga)</text></g><!--entity Providers--><g class="entity" data-qualified-name="ApplicationLayer.Providers" data-source-line="27" id="ent0018"><rect fill="#F1F1F1" height="46.2969" rx="2.5" ry="2.5" style="stroke:#181818;stroke-width:0.5;" width="199.2158" x="755.39" y="369.39"/><rect fill="#F1F1F1" height="10" style="stroke:#181818;stroke-width:0.5;" width="15" x="934.6058" y="374.39"/><rect fill="#F1F1F1" height="2" style="stroke:#181818;stroke-width:0.5;" width="4" x="932.6058" y="376.39"/><rect fill="#F1F1F1" height="2" style="stroke:#181818;stroke-width:0.5;" width="4" x="932.6058" y="380.39"/><text fill="#000000" font-family="sans-serif" font-size="14" lengthAdjust="spacing" textLength="159.2158" x="770.39" y="402.3851">Providers da Aplica&#231;&#227;o</text></g><!--entity GlobalConfig--><g class="entity" data-qualified-name="ApplicationLayer.GlobalConfig" data-source-line="28" id="ent0019"><rect fill="#F1F1F1" height="46.2969" rx="2.5" ry="2.5" style="stroke:#181818;stroke-width:0.5;" width="182.0781" x="1004.96" y="483.84"/><rect fill="#F1F1F1" height="10" style="stroke:#181818;stroke-width:0.5;" width="15" x="1167.0381" y="488.84"/><rect fill="#F1F1F1" height="2" style="stroke:#181818;stroke-width:0.5;" width="4" x="1165.0381" y="490.84"/><rect fill="#F1F1F1" height="2" style="stroke:#181818;stroke-width:0.5;" width="4" x="1165.0381" y="494.84"/><text fill="#000000" font-family="sans-serif" font-size="14" lengthAdjust="spacing" textLength="142.0781" x="1019.96" y="516.8351">Configura&#231;&#227;o Global</text></g><!--entity BackendApi--><g class="entity" data-qualified-name="ExternalLayer.BackendApi" data-source-line="32" id="ent0021"><rect fill="#F1F1F1" height="46.2969" rx="2.5" ry="2.5" style="stroke:#181818;stroke-width:0.5;" width="148.9102" x="704.54" y="948.47"/><rect fill="#F1F1F1" height="10" style="stroke:#181818;stroke-width:0.5;" width="15" x="833.4502" y="953.47"/><rect fill="#F1F1F1" height="2" style="stroke:#181818;stroke-width:0.5;" width="4" x="831.4502" y="955.47"/><rect fill="#F1F1F1" height="2" style="stroke:#181818;stroke-width:0.5;" width="4" x="831.4502" y="959.47"/><text fill="#000000" font-family="sans-serif" font-size="14" lengthAdjust="spacing" textLength="108.9102" x="719.54" y="981.4651">API de Backend</text></g><!--entity BrowserStorage--><g class="entity" data-qualified-name="ExternalLayer.BrowserStorage" data-source-line="33" id="ent0022"><rect fill="#F1F1F1" height="46.2969" rx="2.5" ry="2.5" style="stroke:#181818;stroke-width:0.5;" width="259.1191" x="888.44" y="948.47"/><rect fill="#F1F1F1" height="10" style="stroke:#181818;stroke-width:0.5;" width="15" x="1127.5591" y="953.47"/><rect fill="#F1F1F1" height="2" style="stroke:#181818;stroke-width:0.5;" width="4" x="1125.5591" y="955.47"/><rect fill="#F1F1F1" height="2" style="stroke:#181818;stroke-width:0.5;" width="4" x="1125.5591" y="959.47"/><text fill="#000000" font-family="sans-serif" font-size="14" lengthAdjust="spacing" textLength="219.1191" x="903.44" y="981.4651">Armazenamento do Navegador</text></g><!--entity Cookies--><g class="entity" data-qualified-name="ExternalLayer.Cookies" data-source-line="34" id="ent0023"><rect fill="#F1F1F1" height="46.2969" rx="2.5" ry="2.5" style="stroke:#181818;stroke-width:0.5;" width="94.8105" x="1182.59" y="948.47"/><rect fill="#F1F1F1" height="10" style="stroke:#181818;stroke-width:0.5;" width="15" x="1257.4005" y="953.47"/><rect fill="#F1F1F1" height="2" style="stroke:#181818;stroke-width:0.5;" width="4" x="1255.4005" y="955.47"/><rect fill="#F1F1F1" height="2" style="stroke:#181818;stroke-width:0.5;" width="4" x="1255.4005" y="959.47"/><text fill="#000000" font-family="sans-serif" font-size="14" lengthAdjust="spacing" textLength="54.8105" x="1197.59" y="981.4651">Cookies</text></g><!--entity ExternalServices--><g class="entity" data-qualified-name="ExternalLayer.ExternalServices" data-source-line="35" id="ent0024"><rect fill="#F1F1F1" height="46.2969" rx="2.5" ry="2.5" style="stroke:#181818;stroke-width:0.5;" width="204.4863" x="464.76" y="948.47"/><rect fill="#F1F1F1" height="10" style="stroke:#181818;stroke-width:0.5;" width="15" x="649.2463" y="953.47"/><rect fill="#F1F1F1" height="2" style="stroke:#181818;stroke-width:0.5;" width="4" x="647.2463" y="955.47"/><rect fill="#F1F1F1" height="2" style="stroke:#181818;stroke-width:0.5;" width="4" x="647.2463" y="959.47"/><text fill="#000000" font-family="sans-serif" font-size="14" lengthAdjust="spacing" textLength="164.4863" x="479.76" y="981.4651">Servi&#231;os Externos / BFF</text></g><!--entity Usuario--><g class="entity" data-qualified-name="Usuario" data-source-line="6" id="ent0002"><ellipse cx="209.0021" cy="14" fill="#F1F1F1" rx="8" ry="8" style="stroke:#181818;stroke-width:0.5;"/><path d="M209.0021,22 L209.0021,49 M196.0021,30 L222.0021,30 M209.0021,49 L196.0021,64 M209.0021,49 L222.0021,64" fill="none" style="stroke:#181818;stroke-width:0.5;"/><text fill="#000000" font-family="sans-serif" font-size="14" lengthAdjust="spacing" textLength="53.2041" x="182.4" y="78.4951">Usuario</text></g><!--link Usuario to Screens--><g class="link" data-entity-1="ent0002" data-entity-2="ent0004" data-link-type="dependency" data-source-line="38" id="lnk25"><path d="M209,82.03 C209,101.6 209,118.77 209,135.63" fill="none" id="Usuario-to-Screens" style="stroke:#181818;stroke-width:1;"/><polygon fill="#181818" points="209,141.63,213,132.63,209,136.63,205,132.63,209,141.63" style="stroke:#181818;stroke-width:1;"/></g><!--link Screens to UIComponents--><g class="link" data-entity-1="ent0004" data-entity-2="ent0005" data-link-type="dependency" data-source-line="40" id="lnk26"><path d="M185.76,188.54 C185.76,206.16 185.76,224.12 185.76,241.72" fill="none" id="Screens-to-UIComponents" style="stroke:#181818;stroke-width:1;"/><polygon fill="#181818" points="185.76,247.72,189.76,238.72,185.76,242.72,181.76,238.72,185.76,247.72" style="stroke:#181818;stroke-width:1;"/></g><!--link Screens to ScreenHooks--><g class="link" data-entity-1="ent0004" data-entity-2="ent0006" data-link-type="dependency" data-source-line="41" id="lnk27"><path d="M241.96,188.54 C241.96,206.16 241.96,224.12 241.96,241.72" fill="none" id="Screens-to-ScreenHooks" style="stroke:#181818;stroke-width:1;"/><polygon fill="#181818" points="241.96,247.72,245.96,238.72,241.96,242.72,237.96,238.72,241.96,247.72" style="stroke:#181818;stroke-width:1;"/></g><!--link ScreenHooks to FeatureHooks--><g class="link" data-entity-1="ent0006" data-entity-2="ent0008" data-link-type="dependency" data-source-line="42" id="lnk28"><path d="M306,294.63 C306,316.11 306,341.77 306,363.23" fill="none" id="ScreenHooks-to-FeatureHooks" style="stroke:#181818;stroke-width:1;"/><polygon fill="#181818" points="306,369.23,310,360.23,306,364.23,302,360.23,306,369.23" style="stroke:#181818;stroke-width:1;"/></g><!--link FeatureHooks to BusinessRules--><g class="link" data-entity-1="ent0008" data-entity-2="ent0009" data-link-type="dependency" data-source-line="44" id="lnk29"><path d="M224.23,392.77 C213.96,392.77 206.98,392.77 206.98,392.77 C206.98,392.77 206.98,444.18 206.98,477.6" fill="none" id="FeatureHooks-to-BusinessRules" style="stroke:#181818;stroke-width:1;"/><polygon fill="#181818" points="206.98,483.6,210.98,474.6,206.98,478.6,202.98,474.6,206.98,483.6" style="stroke:#181818;stroke-width:1;"/></g><!--link FeatureHooks to Validations--><g class="link" data-entity-1="ent0008" data-entity-2="ent0010" data-link-type="dependency" data-source-line="45" id="lnk30"><path d="M306,415.98 C306,435.73 306,457.84 306,477.58" fill="none" id="FeatureHooks-to-Validations" style="stroke:#181818;stroke-width:1;"/><polygon fill="#181818" points="306,483.58,310,474.58,306,478.58,302,474.58,306,483.58" style="stroke:#181818;stroke-width:1;"/></g><!--link FeatureHooks to TanStackQuery--><g class="link" data-entity-1="ent0008" data-entity-2="ent0011" data-link-type="dependency" data-source-line="46" id="lnk31"><path d="M375.75,415.92 C375.75,441.76 375.75,479.77 375.75,479.77 C375.75,479.77 378.53,479.77 392.04,479.77" fill="none" id="FeatureHooks-to-TanStackQuery" style="stroke:#181818;stroke-width:1;"/><polygon fill="#181818" points="398.04,479.77,389.04,475.77,393.04,479.77,389.04,483.77,398.04,479.77" style="stroke:#181818;stroke-width:1;"/></g><!--link TanStackQuery to FeatureServices--><g class="link" data-entity-1="ent0011" data-entity-2="ent0012" data-link-type="dependency" data-source-line="48" id="lnk32"><path d="M567,538.56 C567,559.7 567,581.07 567,600.25" fill="none" id="TanStackQuery-to-FeatureServices" style="stroke:#181818;stroke-width:1;"/><polygon fill="#181818" points="567,606.25,571,597.25,567,601.25,563,597.25,567,606.25" style="stroke:#181818;stroke-width:1;"/></g><!--link FeatureServices to Actions--><g class="link" data-entity-1="ent0012" data-entity-2="ent0014" data-link-type="dependency" data-source-line="49" id="lnk33"><path d="M567,653.17 C567,686.87 567,744.77 567,744.77 C567,744.77 708.15,744.77 800.98,744.77" fill="none" id="FeatureServices-to-Actions" style="stroke:#181818;stroke-width:1;"/><polygon fill="#181818" points="806.98,744.77,797.98,740.77,801.98,744.77,797.98,748.77,806.98,744.77" style="stroke:#181818;stroke-width:1;"/></g><!--link Providers to ReduxStore--><g class="link" data-entity-1="ent0018" data-entity-2="ent0016" data-link-type="dependency" data-source-line="51" id="lnk34"><path d="M855,415.98 C855,433.11 855,450.54 855,469.34" fill="none" id="Providers-to-ReduxStore" style="stroke:#181818;stroke-width:1;"/><polygon fill="#181818" points="855,475.34,859,466.34,855,470.34,851,466.34,855,475.34" style="stroke:#181818;stroke-width:1;"/></g><!--link Providers to TanStackQuery--><g class="link" data-entity-1="ent0018" data-entity-2="ent0011" data-link-type="dependency" data-source-line="52" id="lnk35"><path d="M755.22,392.77 C663.27,392.77 541,392.77 541,392.77 C541,392.77 541,435.67 541,469.48" fill="none" id="Providers-to-TanStackQuery" style="stroke:#181818;stroke-width:1;"/><polygon fill="#181818" points="541,475.48,545,466.48,541,470.48,537,466.48,541,475.48" style="stroke:#181818;stroke-width:1;"/></g><!--link Providers to GlobalConfig--><g class="link" data-entity-1="ent0018" data-entity-2="ent0019" data-link-type="dependency" data-source-line="53" id="lnk36"><path d="M954.76,392.77 C1021.06,392.77 1096,392.77 1096,392.77 C1096,392.77 1096,444.18 1096,477.6" fill="none" id="Providers-to-GlobalConfig" style="stroke:#181818;stroke-width:1;"/><polygon fill="#181818" points="1096,483.6,1100,474.6,1096,478.6,1092,474.6,1096,483.6" style="stroke:#181818;stroke-width:1;"/></g><!--link ReduxStore to ReduxSaga--><g class="link" data-entity-1="ent0016" data-entity-2="ent0017" data-link-type="dependency" data-source-line="55" id="lnk37"><path d="M855.03,538.56 C855.03,556.86 855.03,573.83 855.03,592.12" fill="none" id="ReduxStore-to-ReduxSaga" style="stroke:#181818;stroke-width:1;stroke-dasharray:7,7;"/><polygon fill="#181818" points="855.03,598.12,859.03,589.12,855.03,593.12,851.03,589.12,855.03,598.12" style="stroke:#181818;stroke-width:1;"/><text fill="#000000" font-family="sans-serif" font-size="13" lengthAdjust="spacing" textLength="93.7041" x="761.03" y="564.4069">a&#231;&#245;es / escuta</text></g><!--link ReduxSaga to Actions--><g class="link" data-entity-1="ent0017" data-entity-2="ent0014" data-link-type="dependency" data-source-line="56" id="lnk38"><path d="M881,661.16 C881,679.95 881,697.39 881,714.54" fill="none" id="ReduxSaga-to-Actions" style="stroke:#181818;stroke-width:1;"/><polygon fill="#181818" points="881,720.54,885,711.54,881,715.54,877,711.54,881,720.54" style="stroke:#181818;stroke-width:1;"/></g><!--link Actions to ApiClient--><g class="link" data-entity-1="ent0014" data-entity-2="ent0015" data-link-type="dependency" data-source-line="58" id="lnk39"><path d="M842.57,767.62 C842.57,785.23 842.57,803.2 842.57,820.8" fill="none" id="Actions-to-ApiClient" style="stroke:#181818;stroke-width:1;"/><polygon fill="#181818" points="842.57,826.8,846.57,817.8,842.57,821.8,838.57,817.8,842.57,826.8" style="stroke:#181818;stroke-width:1;"/></g><!--link Actions to BrowserStorage--><g class="link" data-entity-1="ent0014" data-entity-2="ent0022" data-link-type="dependency" data-source-line="59" id="lnk40"><path d="M921.57,767.53 C921.57,811.25 921.57,898.62 921.57,942.25" fill="none" id="Actions-to-BrowserStorage" style="stroke:#181818;stroke-width:1;"/><polygon fill="#181818" points="921.57,948.25,925.57,939.25,921.57,943.25,917.57,939.25,921.57,948.25" style="stroke:#181818;stroke-width:1;"/></g><!--link Actions to Cookies--><g class="link" data-entity-1="ent0014" data-entity-2="ent0023" data-link-type="dependency" data-source-line="60" id="lnk41"><path d="M955.06,744.77 C1058.1,744.77 1232.22,744.77 1232.22,744.77 C1232.22,744.77 1232.22,884.24 1232.22,942.2" fill="none" id="Actions-to-Cookies" style="stroke:#181818;stroke-width:1;"/><polygon fill="#181818" points="1232.22,948.2,1236.22,939.2,1232.22,943.2,1228.22,939.2,1232.22,948.2" style="stroke:#181818;stroke-width:1;"/></g><!--link ApiClient to BackendApi--><g class="link" data-entity-1="ent0015" data-entity-2="ent0021" data-link-type="dependency" data-source-line="62" id="lnk42"><path d="M796.8,873.71 C796.8,895.19 796.8,920.85 796.8,942.31" fill="none" id="ApiClient-to-BackendApi" style="stroke:#181818;stroke-width:1;"/><polygon fill="#181818" points="796.8,948.31,800.8,939.31,796.8,943.31,792.8,939.31,796.8,948.31" style="stroke:#181818;stroke-width:1;"/></g><!--link ApiClient to ExternalServices--><g class="link" data-entity-1="ent0015" data-entity-2="ent0024" data-link-type="dependency" data-source-line="63" id="lnk43"><path d="M739.83,850.77 C702.08,850.77 662.95,850.77 662.95,850.77 C662.95,850.77 662.95,906.86 662.95,942.03" fill="none" id="ApiClient-to-ExternalServices" style="stroke:#181818;stroke-width:1;"/><polygon fill="#181818" points="662.95,948.03,666.95,939.03,662.95,943.03,658.95,939.03,662.95,948.03" style="stroke:#181818;stroke-width:1;"/></g><?plantuml-src TLJDJjmm4BxdAKQSg2helGUaPSlIbIfA2VJKov3C1ciJJsexmBRgq_I0UkYfuWdsnUgVRDOEuJQUxvk_psCRRi4mtB8nt40f51L6iCpqMiWM5JRGOh76YdApgGaSZBAgAIBeEopvGSWALbZh6Ac59BDf2LYPEyuoB0mhkD4TAc6FVMOuc6E39K99S4qr7W1go0j593_XXXJyp00ARbgM90qSE8wEI3g5vpkJjCjui_JKc-NW7_4_Cg_rH6tlptvDjhaWD9qYEFp0pVQl50nluKmRguD3SrBtecJrncVhkPEZ3BLxKXmGwYVqAweKUlu5LTj_XM0VSDffAxJMLrrDeuYlM8iIjq_RPmgI1OUxuX7pd1J9GjWHb2lmSfflyl0QPMwi6l2b8xK9u-rytfMcz97R9xOTuzI47Y_eDP5dRLkBmlSAXqkvKaZQgCv6OYWT4IRLdOMvuNhxfv2M61IO5HFJpslXDiQNlLpssKNmfinUcFEQRx5sWyry4xRKRxOINL7PFORsl9dRZQSqmsVrlNEJ35AlI1WhqfnhDAHGw5qUoB72E9azfhak5TlB8QL7dVYO0Hm_4BaIbLNHC_j9V40m0vvSIYwqeSOopXvjXvA3ak60zRJubqittAbDGR8CUnfiA-o8gXhyGH8RUx8hnt21zrGvUKAOuWTDoYbfcndFmclHhtPllxQ3kzRX7Pmk5ia0yIBslnCS7PqC_qlM6zwP_2Gn47yRaUsnv4rdySd3wGj-0SUFzWMOFi0iESQrXo57Py_PFOfilr3E7Qrm2gH5KopPecoV0ewFJ_Px3E-X_vViXP0kEeFP7anwwetW75vbx1sjI0pjjY8R8aF4VXTJOBmJ_m40?></g></svg>