<?plantuml 1.2026.1?><svg xmlns="http://www.w3.org/2000/svg" xmlns:xlink="http://www.w3.org/1999/xlink" contentStyleType="text/css" data-diagram-type="DESCRIPTION" height="1001px" preserveAspectRatio="none" style="width:400px;height:1001px;background:#FFFFFF;" version="1.1" viewBox="0 0 400 1001" width="400px" zoomAndPan="magnify"><defs/><g><!--cluster WEB POS--><g class="cluster" data-qualified-name="WEB POS" data-source-line="6" id="ent0004"><rect fill="none" height="988" rx="2.5" ry="2.5" style="stroke:#181818;stroke-width:1;" width="278.05" x="116.06" y="7"/><text fill="#000000" font-family="sans-serif" font-size="14" font-weight="bold" lengthAdjust="spacing" textLength="72.7959" x="218.6871" y="21.9951">WEB POS</text></g><!--entity Fazer login--><g class="entity" data-qualified-name="WEB POS.Fazer login" data-source-line="7" id="ent0005"><ellipse cx="255.0795" cy="748.0036" fill="#F1F1F1" rx="57.3795" ry="14.5236" style="stroke:#181818;stroke-width:0.5;"/><text fill="#000000" font-family="sans-serif" font-size="14" lengthAdjust="spacing" textLength="76.9043" x="216.6274" y="752.6521">Fazer login</text></g><!--entity Selecionar categoria--><g class="entity" data-qualified-name="WEB POS.Selecionar categoria" data-source-line="8" id="ent0007"><ellipse cx="255.0811" cy="130.0042" fill="#F1F1F1" rx="85.6711" ry="19.5342" style="stroke:#181818;stroke-width:0.5;"/><text fill="#000000" font-family="sans-serif" font-size="14" lengthAdjust="spacing" textLength="143.8691" x="183.1465" y="134.6527">Selecionar categoria</text></g><!--entity Visualizar produtos--><g class="entity" data-qualified-name="WEB POS.Visualizar produtos" data-source-line="9" id="ent0009"><ellipse cx="255.0842" cy="680.0008" fill="#F1F1F1" rx="81.6042" ry="18.7208" style="stroke:#181818;stroke-width:0.5;"/><text fill="#000000" font-family="sans-serif" font-size="14" lengthAdjust="spacing" textLength="134.4424" x="187.863" y="684.6493">Visualizar produtos</text></g><!--entity Adicionar item ao carrinho--><g class="entity" data-qualified-name="WEB POS.Adicionar item ao carrinho" data-source-line="10" id="ent0011"><ellipse cx="255.0842" cy="208.0008" fill="#F1F1F1" rx="104.4542" ry="23.2908" style="stroke:#181818;stroke-width:0.5;"/><text fill="#000000" font-family="sans-serif" font-size="14" lengthAdjust="spacing" textLength="185.8281" x="162.1701" y="212.6493">Adicionar item ao carrinho</text></g><!--entity Remover item do carrinho--><g class="entity" data-qualified-name="WEB POS.Remover item do carrinho" data-source-line="11" id="ent0013"><ellipse cx="255.0841" cy="288.9988" fill="#F1F1F1" rx="103.4441" ry="23.0888" style="stroke:#181818;stroke-width:0.5;"/><text fill="#000000" font-family="sans-serif" font-size="14" lengthAdjust="spacing" textLength="183.6201" x="163.274" y="293.6473">Remover item do carrinho</text></g><!--entity Alterar quantidade--><g class="entity" data-qualified-name="WEB POS.Alterar quantidade" data-source-line="12" id="ent0015"><ellipse cx="255.0808" cy="366.0042" fill="#F1F1F1" rx="80.4208" ry="18.4842" style="stroke:#181818;stroke-width:0.5;"/><text fill="#000000" font-family="sans-serif" font-size="14" lengthAdjust="spacing" textLength="131.667" x="189.2473" y="370.6526">Alterar quantidade</text></g><!--entity Visualizar carrinho--><g class="entity" data-qualified-name="WEB POS.Visualizar carrinho" data-source-line="13" id="ent0017"><ellipse cx="255.0821" cy="438.0024" fill="#F1F1F1" rx="79.7621" ry="18.3524" style="stroke:#181818;stroke-width:0.5;"/><text fill="#000000" font-family="sans-serif" font-size="14" lengthAdjust="spacing" textLength="130.1152" x="190.0245" y="442.6509">Visualizar carrinho</text></g><!--entity Visualizar total do pedido--><g class="entity" data-qualified-name="WEB POS.Visualizar total do pedido" data-source-line="14" id="ent0019"><ellipse cx="255.0821" cy="513.9964" fill="#F1F1F1" rx="100.9821" ry="22.5964" style="stroke:#181818;stroke-width:0.5;"/><text fill="#000000" font-family="sans-serif" font-size="14" lengthAdjust="spacing" textLength="178.2197" x="165.9722" y="518.6449">Visualizar total do pedido</text></g><!--entity Selecionar forma de pagamento--><g class="entity" data-qualified-name="WEB POS.Selecionar forma de pagamento" data-source-line="15" id="ent0021"><ellipse cx="255.0822" cy="599.0044" fill="#F1F1F1" rx="123.0222" ry="27.0044" style="stroke:#181818;stroke-width:0.5;"/><text fill="#000000" font-family="sans-serif" font-size="14" lengthAdjust="spacing" textLength="225.791" x="142.1867" y="603.6529">Selecionar forma de pagamento</text></g><!--entity Finalizar pedido--><g class="entity" data-qualified-name="WEB POS.Finalizar pedido" data-source-line="16" id="ent0023"><ellipse cx="255.0835" cy="59.0027" fill="#F1F1F1" rx="71.8635" ry="16.7727" style="stroke:#181818;stroke-width:0.5;"/><text fill="#000000" font-family="sans-serif" font-size="14" lengthAdjust="spacing" textLength="111.0361" x="199.5654" y="63.6511">Finalizar pedido</text></g><!--entity Atualizar estoque--><g class="entity" data-qualified-name="WEB POS.Atualizar estoque" data-source-line="20" id="ent0027"><ellipse cx="255.0838" cy="961.0048" fill="#F1F1F1" rx="76.6738" ry="17.7348" style="stroke:#181818;stroke-width:0.5;"/><text fill="#000000" font-family="sans-serif" font-size="14" lengthAdjust="spacing" textLength="122.7666" x="193.7005" y="965.6532">Atualizar estoque</text></g><!--entity Alterar disponibilidade--><g class="entity" data-qualified-name="WEB POS.Alterar disponibilidade" data-source-line="21" id="ent0029"><ellipse cx="255.0803" cy="818.0001" fill="#F1F1F1" rx="91.8503" ry="20.7701" style="stroke:#181818;stroke-width:0.5;"/><text fill="#000000" font-family="sans-serif" font-size="14" lengthAdjust="spacing" textLength="157.917" x="176.1218" y="822.6485">Alterar disponibilidade</text></g><!--entity Cancelar pedido--><g class="entity" data-qualified-name="WEB POS.Cancelar pedido" data-source-line="22" id="ent0031"><ellipse cx="255.0799" cy="890.998" fill="#F1F1F1" rx="73.0399" ry="17.008" style="stroke:#181818;stroke-width:0.5;"/><text fill="#000000" font-family="sans-serif" font-size="14" lengthAdjust="spacing" textLength="113.9414" x="198.1092" y="895.6464">Cancelar pedido</text></g><!--entity Operador--><g class="entity" data-qualified-name="Operador" data-source-line="3" id="ent0002"><ellipse cx="39.0313" cy="372.35" fill="#F1F1F1" rx="8" ry="8" style="stroke:#181818;stroke-width:0.5;"/><path d="M39.0313,380.35 L39.0313,407.35 M26.0313,388.35 L52.0313,388.35 M39.0313,407.35 L26.0313,422.35 M39.0313,407.35 L52.0313,422.35" fill="none" style="stroke:#181818;stroke-width:0.5;"/><text fill="#000000" font-family="sans-serif" font-size="14" lengthAdjust="spacing" textLength="66.0625" x="6" y="436.8451">Operador</text></g><!--entity Admin--><g class="entity" data-qualified-name="Admin" data-source-line="4" id="ent0003"><ellipse cx="39.0321" cy="788.35" fill="#F1F1F1" rx="8" ry="8" style="stroke:#181818;stroke-width:0.5;"/><path d="M39.0321,796.35 L39.0321,823.35 M26.0321,804.35 L52.0321,804.35 M39.0321,823.35 L26.0321,838.35 M39.0321,823.35 L52.0321,838.35" fill="none" style="stroke:#181818;stroke-width:0.5;"/><text fill="#000000" font-family="sans-serif" font-size="14" lengthAdjust="spacing" textLength="44.8643" x="16.6" y="852.8451">Admin</text></g><!--link Operador to Fazer login--><g class="link" data-entity-1="ent0002" data-entity-2="ent0005" data-link-type="dependency" data-source-line="7" id="lnk6"><path d="M43.24,440.43 C50.29,515.46 69.65,677.5 108.06,716 C131.25,739.24 161.1961,746.8912 191.6061,749.1212" fill="none" id="Operador-to-Fazer login" style="stroke:#181818;stroke-width:1;"/><polygon fill="#181818" points="197.59,749.56,188.9066,744.9125,192.6034,749.1943,188.3216,752.8911,197.59,749.56" style="stroke:#181818;stroke-width:1;"/></g><!--link Operador to Selecionar categoria--><g class="link" data-entity-1="ent0002" data-entity-2="ent0007" data-link-type="dependency" data-source-line="8" id="lnk8"><path d="M40.03,363.6 C42.18,311.59 54.02,219.26 108.06,167 C125.36,150.28 143.2284,142.116 166.5284,136.836" fill="none" id="Operador-to-Selecionar categoria" style="stroke:#181818;stroke-width:1;"/><polygon fill="#181818" points="172.38,135.51,162.7185,133.598,167.5036,136.615,164.4866,141.4001,172.38,135.51" style="stroke:#181818;stroke-width:1;"/></g><!--link Operador to Visualizar produtos--><g class="link" data-entity-1="ent0002" data-entity-2="ent0009" data-link-type="dependency" data-source-line="9" id="lnk10"><path d="M39.57,440.21 C41.1,493.54 52.09,589.81 108.06,644 C126.07,661.44 145.2316,669.6582 169.4916,674.6182" fill="none" id="Operador-to-Visualizar produtos" style="stroke:#181818;stroke-width:1;"/><polygon fill="#181818" points="175.37,675.82,167.3536,670.0983,170.4713,674.8185,165.7512,677.9362,175.37,675.82" style="stroke:#181818;stroke-width:1;"/></g><!--link Operador to Adicionar item ao carrinho--><g class="link" data-entity-1="ent0002" data-entity-2="ent0011" data-link-type="dependency" data-source-line="10" id="lnk12"><path d="M47.25,363.49 C55.81,328.44 73.52,277.76 108.06,248 C123.8,234.45 137.969,227.1604 158.009,221.2004" fill="none" id="Operador-to-Adicionar item ao carrinho" style="stroke:#181818;stroke-width:1;"/><polygon fill="#181818" points="163.76,219.49,153.9932,218.2216,158.9675,220.9153,156.2737,225.8896,163.76,219.49" style="stroke:#181818;stroke-width:1;"/></g><!--link Operador to Remover item do carrinho--><g class="link" data-entity-1="ent0002" data-entity-2="ent0013" data-link-type="dependency" data-source-line="11" id="lnk14"><path d="M69.3,363.54 C80.29,351.31 93.64,338.72 108.06,330 C127.78,318.08 145.2966,311.1175 167.4166,305.0075" fill="none" id="Operador-to-Remover item do carrinho" style="stroke:#181818;stroke-width:1;"/><polygon fill="#181818" points="173.2,303.41,163.4599,301.9506,168.3805,304.7413,165.5899,309.6619,173.2,303.41" style="stroke:#181818;stroke-width:1;"/></g><!--link Operador to Alterar quantidade--><g class="link" data-entity-1="ent0002" data-entity-2="ent0015" data-link-type="dependency" data-source-line="12" id="lnk16"><path d="M72.54,396.53 C103.42,391.34 144.8029,384.3739 183.3829,377.8939" fill="none" id="Operador-to-Alterar quantidade" style="stroke:#181818;stroke-width:1;"/><polygon fill="#181818" points="189.3,376.9,179.7618,374.446,184.3691,377.7282,181.0869,382.3355,189.3,376.9" style="stroke:#181818;stroke-width:1;"/></g><!--link Operador to Visualizar carrinho--><g class="link" data-entity-1="ent0002" data-entity-2="ent0017" data-link-type="dependency" data-source-line="13" id="lnk18"><path d="M72.54,407.47 C103.53,412.68 145.163,419.6852 183.823,426.1852" fill="none" id="Operador-to-Visualizar carrinho" style="stroke:#181818;stroke-width:1;"/><polygon fill="#181818" points="189.74,427.18,181.5278,421.7431,184.8092,426.351,180.2014,429.6324,189.74,427.18" style="stroke:#181818;stroke-width:1;"/></g><!--link Operador to Visualizar total do pedido--><g class="link" data-entity-1="ent0002" data-entity-2="ent0019" data-link-type="dependency" data-source-line="14" id="lnk20"><path d="M69.27,440.51 C80.26,452.74 93.61,465.33 108.06,474 C127.9,485.9 145.5545,492.7969 167.7945,498.7569" fill="none" id="Operador-to-Visualizar total do pedido" style="stroke:#181818;stroke-width:1;"/><polygon fill="#181818" points="173.59,500.31,165.9322,494.1167,168.7604,499.0157,163.8613,501.844,173.59,500.31" style="stroke:#181818;stroke-width:1;"/></g><!--link Operador to Selecionar forma de pagamento--><g class="link" data-entity-1="ent0002" data-entity-2="ent0021" data-link-type="dependency" data-source-line="15" id="lnk22"><path d="M47.77,440.44 C56.64,474.84 74.5,524.3 108.06,554 C122.27,566.57 134.2871,573.5908 152.3571,580.1208" fill="none" id="Operador-to-Selecionar forma de pagamento" style="stroke:#181818;stroke-width:1;"/><polygon fill="#181818" points="158,582.16,150.8952,575.3393,153.2976,580.4607,148.1763,582.8631,158,582.16" style="stroke:#181818;stroke-width:1;"/></g><!--link Operador to Finalizar pedido--><g class="link" data-entity-1="ent0002" data-entity-2="ent0023" data-link-type="dependency" data-source-line="16" id="lnk24"><path d="M43.45,363.36 C50.8,289.22 70.57,130.95 108.06,93 C127.64,73.19 150.4254,64.8835 177.2254,60.8935" fill="none" id="Operador-to-Finalizar pedido" style="stroke:#181818;stroke-width:1;"/><polygon fill="#181818" points="183.16,60.01,173.6691,57.3789,178.2145,60.7463,174.8471,65.2917,183.16,60.01" style="stroke:#181818;stroke-width:1;"/></g><!--link Admin to Fazer login--><g class="link" data-entity-1="ent0003" data-entity-2="ent0005" data-link-type="dependency" data-source-line="18" id="lnk25"><path d="M61.9,803.61 C74.86,795.64 91.87,786.14 108.06,780 C139.12,768.22 169.7209,761.2604 198.4609,756.2004" fill="none" id="Admin-to-Fazer login" style="stroke:#181818;stroke-width:1;"/><polygon fill="#181818" points="204.37,755.16,194.8128,752.7811,199.4457,756.027,196.1999,760.66,204.37,755.16" style="stroke:#181818;stroke-width:1;"/></g><!--link Admin to Visualizar produtos--><g class="link" data-entity-1="ent0003" data-entity-2="ent0009" data-link-type="dependency" data-source-line="19" id="lnk26"><path d="M56.92,779.5 C68.36,757.76 85.5,731.84 108.06,716 C129,701.3 149.4388,693.8065 173.9388,688.6465" fill="none" id="Admin-to-Visualizar produtos" style="stroke:#181818;stroke-width:1;"/><polygon fill="#181818" points="179.81,687.41,170.1788,685.3507,174.9173,688.4405,171.8276,693.179,179.81,687.41" style="stroke:#181818;stroke-width:1;"/></g><!--link Admin to Atualizar estoque--><g class="link" data-entity-1="ent0003" data-entity-2="ent0027" data-link-type="dependency" data-source-line="20" id="lnk28"><path d="M55.21,856.42 C66.42,879.92 83.93,908.7 108.06,926 C129.67,941.49 151.3472,949.0707 176.7072,953.9307" fill="none" id="Admin-to-Atualizar estoque" style="stroke:#181818;stroke-width:1;"/><polygon fill="#181818" points="182.6,955.06,174.5137,949.4376,177.6894,954.1189,173.008,957.2946,182.6,955.06" style="stroke:#181818;stroke-width:1;"/></g><!--link Admin to Alterar disponibilidade--><g class="link" data-entity-1="ent0003" data-entity-2="ent0029" data-link-type="dependency" data-source-line="21" id="lnk30"><path d="M61.73,818 C85.65,818 119.69,818 157.07,818" fill="none" id="Admin-to-Alterar disponibilidade" style="stroke:#181818;stroke-width:1;"/><polygon fill="#181818" points="163.07,818,154.07,814,158.07,818,154.07,822,163.07,818" style="stroke:#181818;stroke-width:1;"/></g><!--link Admin to Cancelar pedido--><g class="link" data-entity-1="ent0003" data-entity-2="ent0031" data-link-type="dependency" data-source-line="22" id="lnk32"><path d="M61.95,832.28 C74.92,840.2 91.93,849.7 108.06,856 C136.11,866.95 162.6972,873.921 189.8872,879.611" fill="none" id="Admin-to-Cancelar pedido" style="stroke:#181818;stroke-width:1;"/><polygon fill="#181818" points="195.76,880.84,187.7701,875.0813,190.866,879.8158,186.1315,882.9117,195.76,880.84" style="stroke:#181818;stroke-width:1;"/></g><?plantuml-src VT6nRi9030RWFKzXCT61LwWKgh9I5OdExjaSbYxdu3WTgFhkFQg0eWOoMlvaMxyJ7nnSmIGU7KYCWulcgiBWQh1jsP3KXhAcHahlWZ37nB3uU5t3stQtWEyARXfMgsTORl3C1acZvAT9SyU9Grc41W6TevhWLEsbwp79kQZMb7hNRefgac6IE3U0MYQQIJxgrBvperyyI9gJTV9I6fnwp2w4nBFdFHuqGgwEwRAsPHBIsLGEQWq2CRGOiU7iT_X6yZMTOM0XVp-w-u5Hvq6m8r7x5N3dUkhvVt_8XwHhDSkdf5j88_M2EN0Q7VZp2m00?></g></svg>