<?plantuml 1.2026.1?><svg xmlns="http://www.w3.org/2000/svg" xmlns:xlink="http://www.w3.org/1999/xlink" contentStyleType="text/css" data-diagram-type="ACTIVITY" height="2344px" preserveAspectRatio="none" style="width:642px;height:2344px;background:#FFFFFF;" version="1.1" viewBox="0 0 642 2344" width="642px" zoomAndPan="magnify"><title>Fluxo do Admin</title><defs/><g><g class="title" data-source-line="1"><text fill="#2C2C2A" font-family="'Helvetica Neue'" font-size="14" font-weight="bold" lengthAdjust="spacing" textLength="122.5752" x="258.2407" y="32.9951">Fluxo do Admin</text></g><ellipse cx="307.7632" cy="57.2969" fill="#B4B2A9" rx="10" ry="10" style="stroke:#222222;stroke-width:1;"/><rect fill="none" height="413.6641" rx="3" ry="3" style="stroke:#000000;stroke-width:1.5;" width="365.2734" x="136.5698" y="77.2969"/><path d="M236.4844,77.2969 L236.4844,85.4297 L226.4844,95.4297 L136.5698,95.4297" fill="none" style="stroke:#000000;stroke-width:1.5;"/><text fill="#2C2C2A" font-family="'Helvetica Neue'" font-size="13" lengthAdjust="spacing" textLength="89.9146" x="139.5698" y="90.3638">Admin - Login</text><rect fill="#EEEDFE" height="35.1328" rx="3" ry="3" style="stroke:#534AB7;stroke-width:1;" width="143.0493" x="236.2385" y="112.4297"/><text fill="#3C3489" font-family="'Helvetica Neue'" font-size="13" lengthAdjust="spacing" textLength="123.0493" x="246.2385" y="134.4966">Carregar aplica&#231;&#227;o</text><rect fill="#EEEDFE" height="35.1328" rx="3" ry="3" style="stroke:#534AB7;stroke-width:1;" width="141.7163" x="236.905" y="167.5625"/><text fill="#3C3489" font-family="'Helvetica Neue'" font-size="13" lengthAdjust="spacing" textLength="121.7163" x="246.905" y="189.6294">Exibir tela de login</text><rect fill="#EEEDFE" height="35.1328" rx="3" ry="3" style="stroke:#534AB7;stroke-width:1;" width="154.145" x="230.6907" y="266.6953"/><text fill="#3C3489" font-family="'Helvetica Neue'" font-size="13" lengthAdjust="spacing" textLength="134.145" x="240.6907" y="288.7622">Informar credenciais</text><polygon fill="#F5F4FD" points="251.5251,321.8281,364.0012,321.8281,376.0012,333.8281,364.0012,345.8281,251.5251,345.8281,239.5251,333.8281,251.5251,321.8281" style="stroke:#534AB7;stroke-width:1;"/><text fill="#3C3489" font-family="'Helvetica Neue'" font-size="11" lengthAdjust="spacing" textLength="112.4761" x="251.5251" y="337.6362">Credenciais v&#225;lidas?</text><text fill="#5F5E5A" font-family="'Helvetica Neue'" font-size="11" lengthAdjust="spacing" textLength="20.7539" x="218.7712" y="331.2339">Sim</text><text fill="#5F5E5A" font-family="'Helvetica Neue'" font-size="11" lengthAdjust="spacing" textLength="21.6992" x="376.0012" y="331.2339">N&#227;o</text><rect fill="#E1F5EE" height="35.1328" rx="3" ry="3" style="stroke:#534AB7;stroke-width:1;" width="125.9106" x="166.5698" y="355.8281"/><text fill="#3C3489" font-family="'Helvetica Neue'" font-size="13" lengthAdjust="spacing" textLength="105.9106" x="176.5698" y="377.895">Acessar sistema</text><rect fill="#FCEBEB" height="35.1328" rx="3" ry="3" style="stroke:#534AB7;stroke-width:1;" width="143.6841" x="314.1592" y="355.8281"/><text fill="#3C3489" font-family="'Helvetica Neue'" font-size="13" lengthAdjust="spacing" textLength="123.6841" x="324.1592" y="377.895">Exibir erro de login</text><polygon fill="#F5F4FD" points="307.7632,222.6953,319.7632,234.6953,307.7632,246.6953,295.7632,234.6953,307.7632,222.6953" style="stroke:#534AB7;stroke-width:1;"/><polygon fill="#F5F4FD" points="238.6882,410.9609,376.8381,410.9609,388.8381,422.9609,376.8381,434.9609,238.6882,434.9609,226.6882,422.9609,238.6882,410.9609" style="stroke:#534AB7;stroke-width:1;"/><text fill="#3C3489" font-family="'Helvetica Neue'" font-size="11" lengthAdjust="spacing" textLength="138.1499" x="238.6882" y="426.769">Tentar login novamente?</text><text fill="#5F5E5A" font-family="'Helvetica Neue'" font-size="11" lengthAdjust="spacing" textLength="20.7539" x="388.8381" y="420.3667">Sim</text><polygon fill="#F5F4FD" points="307.7632,454.9609,319.7632,466.9609,307.7632,478.9609,295.7632,466.9609,307.7632,454.9609" style="stroke:#534AB7;stroke-width:1;"/><rect fill="none" height="1105.3984" rx="3" ry="3" style="stroke:#000000;stroke-width:1.5;" width="563.0171" x="68.0396" y="500.9609"/><path d="M260.4839,500.9609 L260.4839,509.0938 L250.4839,519.0938 L68.0396,519.0938" fill="none" style="stroke:#000000;stroke-width:1.5;"/><text fill="#2C2C2A" font-family="'Helvetica Neue'" font-size="13" lengthAdjust="spacing" textLength="182.4443" x="71.0396" y="514.0278">Admin - Gest&#227;o de Produtos</text><rect fill="#EEEDFE" height="35.1328" rx="3" ry="3" style="stroke:#534AB7;stroke-width:1;" width="126.3867" x="244.5698" y="536.0938"/><text fill="#3C3489" font-family="'Helvetica Neue'" font-size="13" lengthAdjust="spacing" textLength="106.3867" x="254.5698" y="558.1606">Buscar produtos</text><rect fill="#EEEDFE" height="35.1328" rx="3" ry="3" style="stroke:#534AB7;stroke-width:1;" width="118.7251" x="248.4006" y="591.2266"/><text fill="#3C3489" font-family="'Helvetica Neue'" font-size="13" lengthAdjust="spacing" textLength="98.7251" x="258.4006" y="613.2935">Exibir produtos</text><rect fill="#EEEDFE" height="35.1328" rx="3" ry="3" style="stroke:#534AB7;stroke-width:1;" width="143.3477" x="236.0894" y="646.3594"/><text fill="#3C3489" font-family="'Helvetica Neue'" font-size="13" lengthAdjust="spacing" textLength="123.3477" x="246.0894" y="668.4263">Selecionar produto</text><rect fill="#EEEDFE" height="35.1328" rx="3" ry="3" style="stroke:#534AB7;stroke-width:1;" width="201.7334" x="206.8965" y="701.4922"/><text fill="#3C3489" font-family="'Helvetica Neue'" font-size="13" lengthAdjust="spacing" textLength="181.7334" x="216.8965" y="723.5591">Visualizar dados do produto</text><rect fill="#EEEDFE" height="35.1328" rx="3" ry="3" style="stroke:#534AB7;stroke-width:1;" width="219.0879" x="198.2192" y="849.0273"/><text fill="#3C3489" font-family="'Helvetica Neue'" font-size="13" lengthAdjust="spacing" textLength="199.0879" x="208.2192" y="871.0942">Alterar quantidade de estoque</text><rect fill="#EEEDFE" height="35.1328" rx="3" ry="3" style="stroke:#534AB7;stroke-width:1;" width="126.0186" x="244.7539" y="904.1602"/><text fill="#3C3489" font-family="'Helvetica Neue'" font-size="13" lengthAdjust="spacing" textLength="106.0186" x="254.7539" y="926.2271">Salvar altera&#231;&#227;o</text><polygon fill="#F5F4FD" points="215.2219,964.3594,400.3044,964.3594,412.3044,976.3594,400.3044,988.3594,215.2219,988.3594,203.2219,976.3594,215.2219,964.3594" style="stroke:#534AB7;stroke-width:1;"/><text fill="#3C3489" font-family="'Helvetica Neue'" font-size="11" lengthAdjust="spacing" textLength="185.0825" x="215.2219" y="980.1675">Estoque atualizado com sucesso?</text><text fill="#5F5E5A" font-family="'Helvetica Neue'" font-size="11" lengthAdjust="spacing" textLength="20.7539" x="182.468" y="973.7651">Sim</text><text fill="#5F5E5A" font-family="'Helvetica Neue'" font-size="11" lengthAdjust="spacing" textLength="21.6992" x="412.3044" y="973.7651">N&#227;o</text><rect fill="#EAF3DE" height="35.1328" rx="3" ry="3" style="stroke:#534AB7;stroke-width:1;" width="141.4307" x="122.5066" y="998.3594"/><text fill="#3C3489" font-family="'Helvetica Neue'" font-size="13" lengthAdjust="spacing" textLength="121.4307" x="132.5066" y="1020.4263">Exibir confirma&#231;&#227;o</text><rect fill="#FCEBEB" height="35.1328" rx="3" ry="3" style="stroke:#534AB7;stroke-width:1;" width="224.7563" x="309.9263" y="998.3594"/><text fill="#3C3489" font-family="'Helvetica Neue'" font-size="13" lengthAdjust="spacing" textLength="204.7563" x="319.9263" y="1020.4263">Exibir erro ao atualizar estoque</text><polygon fill="#F5F4FD" points="307.7632,805.0273,319.7632,817.0273,307.7632,829.0273,295.7632,817.0273,307.7632,805.0273" style="stroke:#534AB7;stroke-width:1;"/><polygon fill="#F5F4FD" points="211.5562,1053.4922,403.9702,1053.4922,415.9702,1065.4922,403.9702,1077.4922,211.5562,1077.4922,199.5562,1065.4922,211.5562,1053.4922" style="stroke:#534AB7;stroke-width:1;"/><text fill="#3C3489" font-family="'Helvetica Neue'" font-size="11" lengthAdjust="spacing" textLength="192.4141" x="211.5562" y="1069.3003">Tentar salvar estoque novamente?</text><text fill="#5F5E5A" font-family="'Helvetica Neue'" font-size="11" lengthAdjust="spacing" textLength="20.7539" x="415.9702" y="1062.8979">Sim</text><polygon fill="#F5F4FD" points="307.7632,1097.4922,319.7632,1109.4922,307.7632,1121.4922,295.7632,1109.4922,307.7632,1097.4922" style="stroke:#534AB7;stroke-width:1;"/><polygon fill="#F5F4FD" points="236.4915,756.625,379.0349,756.625,391.0349,768.625,379.0349,780.625,236.4915,780.625,224.4915,768.625,236.4915,756.625" style="stroke:#534AB7;stroke-width:1;"/><text fill="#5F5E5A" font-family="'Helvetica Neue'" font-size="11" lengthAdjust="spacing" textLength="20.7539" x="311.7632" y="790.8354">Sim</text><text fill="#3C3489" font-family="'Helvetica Neue'" font-size="11" lengthAdjust="spacing" textLength="142.5435" x="236.4915" y="772.4331">Deseja atualizar estoque?</text><text fill="#5F5E5A" font-family="'Helvetica Neue'" font-size="11" lengthAdjust="spacing" textLength="21.6992" x="391.0349" y="766.0308">N&#227;o</text><polygon fill="#F5F4FD" points="307.7632,1141.4922,319.7632,1153.4922,307.7632,1165.4922,295.7632,1153.4922,307.7632,1141.4922" style="stroke:#534AB7;stroke-width:1;"/><rect fill="#EEEDFE" height="35.1328" rx="3" ry="3" style="stroke:#534AB7;stroke-width:1;" width="180.6719" x="217.4272" y="1277.8945"/><text fill="#3C3489" font-family="'Helvetica Neue'" font-size="13" lengthAdjust="spacing" textLength="160.6719" x="227.4272" y="1299.9614">Ativar/Desativar produto</text><rect fill="#EEEDFE" height="35.1328" rx="3" ry="3" style="stroke:#534AB7;stroke-width:1;" width="126.0186" x="244.7539" y="1333.0273"/><text fill="#3C3489" font-family="'Helvetica Neue'" font-size="13" lengthAdjust="spacing" textLength="106.0186" x="254.7539" y="1355.0942">Salvar altera&#231;&#227;o</text><polygon fill="#F5F4FD" points="200.7549,1393.2266,414.7715,1393.2266,426.7715,1405.2266,414.7715,1417.2266,200.7549,1417.2266,188.7549,1405.2266,200.7549,1393.2266" style="stroke:#534AB7;stroke-width:1;"/><text fill="#3C3489" font-family="'Helvetica Neue'" font-size="11" lengthAdjust="spacing" textLength="214.0166" x="200.7549" y="1409.0347">Disponibilidade alterada com sucesso?</text><text fill="#5F5E5A" font-family="'Helvetica Neue'" font-size="11" lengthAdjust="spacing" textLength="20.7539" x="168.001" y="1402.6323">Sim</text><text fill="#5F5E5A" font-family="'Helvetica Neue'" font-size="11" lengthAdjust="spacing" textLength="21.6992" x="426.7715" y="1402.6323">N&#227;o</text><rect fill="#EAF3DE" height="35.1328" rx="3" ry="3" style="stroke:#534AB7;stroke-width:1;" width="141.4307" x="108.0396" y="1427.2266"/><text fill="#3C3489" font-family="'Helvetica Neue'" font-size="13" lengthAdjust="spacing" textLength="121.4307" x="118.0396" y="1449.2935">Exibir confirma&#231;&#227;o</text><rect fill="#FCEBEB" height="35.1328" rx="3" ry="3" style="stroke:#534AB7;stroke-width:1;" width="257.396" x="308.0735" y="1427.2266"/><text fill="#3C3489" font-family="'Helvetica Neue'" font-size="13" lengthAdjust="spacing" textLength="237.396" x="318.0735" y="1449.2935">Exibir erro ao alterar disponibilidade</text><polygon fill="#F5F4FD" points="307.7632,1233.8945,319.7632,1245.8945,307.7632,1257.8945,295.7632,1245.8945,307.7632,1233.8945" style="stroke:#534AB7;stroke-width:1;"/><polygon fill="#F5F4FD" points="192.1208,1482.3594,423.4055,1482.3594,435.4055,1494.3594,423.4055,1506.3594,192.1208,1506.3594,180.1208,1494.3594,192.1208,1482.3594" style="stroke:#534AB7;stroke-width:1;"/><text fill="#3C3489" font-family="'Helvetica Neue'" font-size="11" lengthAdjust="spacing" textLength="231.2847" x="192.1208" y="1498.1675">Tentar salvar disponibilidade novamente?</text><text fill="#5F5E5A" font-family="'Helvetica Neue'" font-size="11" lengthAdjust="spacing" textLength="20.7539" x="435.4055" y="1491.7651">Sim</text><polygon fill="#F5F4FD" points="307.7632,1526.3594,319.7632,1538.3594,307.7632,1550.3594,295.7632,1538.3594,307.7632,1526.3594" style="stroke:#534AB7;stroke-width:1;"/><polygon fill="#F5F4FD" points="222.6824,1185.4922,392.844,1185.4922,404.844,1197.4922,392.844,1209.4922,222.6824,1209.4922,210.6824,1197.4922,222.6824,1185.4922" style="stroke:#534AB7;stroke-width:1;"/><text fill="#5F5E5A" font-family="'Helvetica Neue'" font-size="11" lengthAdjust="spacing" textLength="20.7539" x="311.7632" y="1219.7026">Sim</text><text fill="#3C3489" font-family="'Helvetica Neue'" font-size="11" lengthAdjust="spacing" textLength="170.1616" x="222.6824" y="1201.3003">Deseja alterar disponibilidade?</text><text fill="#5F5E5A" font-family="'Helvetica Neue'" font-size="11" lengthAdjust="spacing" textLength="21.6992" x="404.844" y="1194.8979">N&#227;o</text><polygon fill="#F5F4FD" points="307.7632,1570.3594,319.7632,1582.3594,307.7632,1594.3594,295.7632,1582.3594,307.7632,1570.3594" style="stroke:#534AB7;stroke-width:1;"/><rect fill="none" height="675.4648" rx="3" ry="3" style="stroke:#000000;stroke-width:1.5;" width="608.0566" x="11" y="1616.3594"/><path d="M237.9946,1616.3594 L237.9946,1624.4922 L227.9946,1634.4922 L11,1634.4922" fill="none" style="stroke:#000000;stroke-width:1.5;"/><text fill="#2C2C2A" font-family="'Helvetica Neue'" font-size="13" lengthAdjust="spacing" textLength="216.9946" x="14" y="1629.4263">Admin - Cancelamento de Pedido</text><rect fill="#EEEDFE" height="35.1328" rx="3" ry="3" style="stroke:#534AB7;stroke-width:1;" width="119.6138" x="247.9563" y="1651.4922"/><text fill="#3C3489" font-family="'Helvetica Neue'" font-size="13" lengthAdjust="spacing" textLength="99.6138" x="257.9563" y="1673.5591">Buscar pedidos</text><rect fill="#EEEDFE" height="35.1328" rx="3" ry="3" style="stroke:#534AB7;stroke-width:1;" width="111.9521" x="251.7871" y="1706.625"/><text fill="#3C3489" font-family="'Helvetica Neue'" font-size="13" lengthAdjust="spacing" textLength="91.9521" x="261.7871" y="1728.6919">Exibir pedidos</text><rect fill="#EEEDFE" height="35.1328" rx="3" ry="3" style="stroke:#534AB7;stroke-width:1;" width="136.5747" x="239.4758" y="1761.7578"/><text fill="#3C3489" font-family="'Helvetica Neue'" font-size="13" lengthAdjust="spacing" textLength="116.5747" x="249.4758" y="1783.8247">Selecionar pedido</text><rect fill="#EEEDFE" height="35.1328" rx="3" ry="3" style="stroke:#534AB7;stroke-width:1;" width="180.9385" x="217.2939" y="1909.293"/><text fill="#3C3489" font-family="'Helvetica Neue'" font-size="13" lengthAdjust="spacing" textLength="160.9385" x="227.2939" y="1931.3599">Confirmar cancelamento</text><polygon fill="#F5F4FD" points="201.061,1964.4258,414.4653,1964.4258,426.4653,1976.4258,414.4653,1988.4258,201.061,1988.4258,189.061,1976.4258,201.061,1964.4258" style="stroke:#534AB7;stroke-width:1;"/><text fill="#3C3489" font-family="'Helvetica Neue'" font-size="11" lengthAdjust="spacing" textLength="213.4043" x="201.061" y="1980.2339">Cancelamento realizado com sucesso?</text><text fill="#5F5E5A" font-family="'Helvetica Neue'" font-size="11" lengthAdjust="spacing" textLength="20.7539" x="168.3071" y="1973.8315">Sim</text><text fill="#5F5E5A" font-family="'Helvetica Neue'" font-size="11" lengthAdjust="spacing" textLength="21.6992" x="426.4653" y="1973.8315">N&#227;o</text><rect fill="#EEEDFE" height="35.1328" rx="3" ry="3" style="stroke:#534AB7;stroke-width:1;" width="294.498" x="23" y="1998.4258"/><text fill="#3C3489" font-family="'Helvetica Neue'" font-size="13" lengthAdjust="spacing" textLength="274.498" x="33" y="2020.4927">Atualizar status do pedido para cancelado</text><rect fill="#EEEDFE" height="35.1328" rx="3" ry="3" style="stroke:#534AB7;stroke-width:1;" width="203.168" x="68.665" y="2057.5586"/><text fill="#3C3489" font-family="'Helvetica Neue'" font-size="13" lengthAdjust="spacing" textLength="183.168" x="78.665" y="2079.6255">Restaurar estoque dos itens</text><rect fill="#EAF3DE" height="35.1328" rx="3" ry="3" style="stroke:#534AB7;stroke-width:1;" width="141.4307" x="99.5337" y="2112.6914"/><text fill="#3C3489" font-family="'Helvetica Neue'" font-size="13" lengthAdjust="spacing" textLength="121.4307" x="109.5337" y="2134.7583">Exibir confirma&#231;&#227;o</text><rect fill="#FCEBEB" height="35.1328" rx="3" ry="3" style="stroke:#534AB7;stroke-width:1;" width="215.5586" x="337.498" y="1998.4258"/><text fill="#3C3489" font-family="'Helvetica Neue'" font-size="13" lengthAdjust="spacing" textLength="195.5586" x="347.498" y="2020.4927">Exibir erro ao cancelar pedido</text><polygon fill="#F5F4FD" points="307.7632,1865.293,319.7632,1877.293,307.7632,1889.293,295.7632,1877.293,307.7632,1865.293" style="stroke:#534AB7;stroke-width:1;"/><polygon fill="#F5F4FD" points="228.6389,2167.8242,386.8875,2167.8242,398.8875,2179.8242,386.8875,2191.8242,228.6389,2191.8242,216.6389,2179.8242,228.6389,2167.8242" style="stroke:#534AB7;stroke-width:1;"/><text fill="#3C3489" font-family="'Helvetica Neue'" font-size="11" lengthAdjust="spacing" textLength="158.2485" x="228.6389" y="2183.6323">Tentar cancelar novamente?</text><text fill="#5F5E5A" font-family="'Helvetica Neue'" font-size="11" lengthAdjust="spacing" textLength="20.7539" x="398.8875" y="2177.23">Sim</text><polygon fill="#F5F4FD" points="307.7632,2211.8242,319.7632,2223.8242,307.7632,2235.8242,295.7632,2223.8242,307.7632,2211.8242" style="stroke:#534AB7;stroke-width:1;"/><polygon fill="#F5F4FD" points="240.3828,1816.8906,375.1436,1816.8906,387.1436,1828.8906,375.1436,1840.8906,240.3828,1840.8906,228.3828,1828.8906,240.3828,1816.8906" style="stroke:#534AB7;stroke-width:1;"/><text fill="#5F5E5A" font-family="'Helvetica Neue'" font-size="11" lengthAdjust="spacing" textLength="20.7539" x="311.7632" y="1851.1011">Sim</text><text fill="#3C3489" font-family="'Helvetica Neue'" font-size="11" lengthAdjust="spacing" textLength="134.7607" x="240.3828" y="1832.6987">Deseja cancelar pedido?</text><text fill="#5F5E5A" font-family="'Helvetica Neue'" font-size="11" lengthAdjust="spacing" textLength="21.6992" x="387.1436" y="1826.2964">N&#227;o</text><polygon fill="#F5F4FD" points="307.7632,2255.8242,319.7632,2267.8242,307.7632,2279.8242,295.7632,2267.8242,307.7632,2255.8242" style="stroke:#534AB7;stroke-width:1;"/><ellipse cx="307.7632" cy="2322.8242" fill="none" rx="11" ry="11" style="stroke:#222222;stroke-width:1;"/><ellipse cx="307.7632" cy="2322.8242" fill="#222222" rx="6" ry="6" style="stroke:#222222;stroke-width:1;"/><line style="stroke:#888780;stroke-width:1;" x1="307.7632" x2="307.7632" y1="147.5625" y2="167.5625"/><polygon fill="#888780" points="303.7632,157.5625,307.7632,167.5625,311.7632,157.5625,307.7632,161.5625" style="stroke:#888780;stroke-width:1;"/><line style="stroke:#888780;stroke-width:1;" x1="229.5251" x2="229.5251" y1="390.9609" y2="466.9609"/><line style="stroke:#888780;stroke-width:1;" x1="229.5251" x2="295.7632" y1="466.9609" y2="466.9609"/><polygon fill="#888780" points="285.7632,462.9609,295.7632,466.9609,285.7632,470.9609,289.7632,466.9609" style="stroke:#888780;stroke-width:1;"/><line style="stroke:#888780;stroke-width:1;" x1="239.5251" x2="229.5251" y1="333.8281" y2="333.8281"/><line style="stroke:#888780;stroke-width:1;" x1="229.5251" x2="229.5251" y1="333.8281" y2="355.8281"/><polygon fill="#888780" points="225.5251,345.8281,229.5251,355.8281,233.5251,345.8281,229.5251,349.8281" style="stroke:#888780;stroke-width:1;"/><line style="stroke:#888780;stroke-width:1;" x1="376.0012" x2="386.0012" y1="333.8281" y2="333.8281"/><line style="stroke:#888780;stroke-width:1;" x1="386.0012" x2="386.0012" y1="333.8281" y2="355.8281"/><polygon fill="#888780" points="382.0012,345.8281,386.0012,355.8281,390.0012,345.8281,386.0012,349.8281" style="stroke:#888780;stroke-width:1;"/><line style="stroke:#888780;stroke-width:1;" x1="386.0012" x2="386.0012" y1="390.9609" y2="395.9609"/><line style="stroke:#888780;stroke-width:1;" x1="386.0012" x2="307.7632" y1="395.9609" y2="395.9609"/><line style="stroke:#888780;stroke-width:1;" x1="307.7632" x2="307.7632" y1="395.9609" y2="410.9609"/><polygon fill="#888780" points="303.7632,400.9609,307.7632,410.9609,311.7632,400.9609,307.7632,404.9609" style="stroke:#888780;stroke-width:1;"/><line style="stroke:#888780;stroke-width:1;" x1="307.7632" x2="307.7632" y1="301.8281" y2="321.8281"/><polygon fill="#888780" points="303.7632,311.8281,307.7632,321.8281,311.7632,311.8281,307.7632,315.8281" style="stroke:#888780;stroke-width:1;"/><line style="stroke:#888780;stroke-width:1;" x1="307.7632" x2="307.7632" y1="246.6953" y2="266.6953"/><polygon fill="#888780" points="303.7632,256.6953,307.7632,266.6953,311.7632,256.6953,307.7632,260.6953" style="stroke:#888780;stroke-width:1;"/><line style="stroke:#888780;stroke-width:1;" x1="388.8381" x2="479.8433" y1="422.9609" y2="422.9609"/><polygon fill="#888780" points="475.8433,351.8281,479.8433,341.8281,483.8433,351.8281,479.8433,347.8281" style="stroke:#888780;stroke-width:1;"/><line style="stroke:#888780;stroke-width:1;" x1="479.8433" x2="479.8433" y1="234.6953" y2="422.9609"/><line style="stroke:#888780;stroke-width:1;" x1="479.8433" x2="319.7632" y1="234.6953" y2="234.6953"/><polygon fill="#888780" points="329.7632,230.6953,319.7632,234.6953,329.7632,238.6953,325.7632,234.6953" style="stroke:#888780;stroke-width:1;"/><line style="stroke:#888780;stroke-width:1;" x1="307.7632" x2="307.7632" y1="434.9609" y2="454.9609"/><polygon fill="#888780" points="303.7632,444.9609,307.7632,454.9609,311.7632,444.9609,307.7632,448.9609" style="stroke:#888780;stroke-width:1;"/><line style="stroke:#888780;stroke-width:1;" x1="307.7632" x2="307.7632" y1="202.6953" y2="222.6953"/><polygon fill="#888780" points="303.7632,212.6953,307.7632,222.6953,311.7632,212.6953,307.7632,216.6953" style="stroke:#888780;stroke-width:1;"/><line style="stroke:#888780;stroke-width:1;" x1="307.7632" x2="307.7632" y1="67.2969" y2="112.4297"/><polygon fill="#888780" points="303.7632,102.4297,307.7632,112.4297,311.7632,102.4297,307.7632,106.4297" style="stroke:#888780;stroke-width:1;"/><line style="stroke:#888780;stroke-width:1;" x1="307.7632" x2="307.7632" y1="571.2266" y2="591.2266"/><polygon fill="#888780" points="303.7632,581.2266,307.7632,591.2266,311.7632,581.2266,307.7632,585.2266" style="stroke:#888780;stroke-width:1;"/><line style="stroke:#888780;stroke-width:1;" x1="307.7632" x2="307.7632" y1="626.3594" y2="646.3594"/><polygon fill="#888780" points="303.7632,636.3594,307.7632,646.3594,311.7632,636.3594,307.7632,640.3594" style="stroke:#888780;stroke-width:1;"/><line style="stroke:#888780;stroke-width:1;" x1="307.7632" x2="307.7632" y1="681.4922" y2="701.4922"/><polygon fill="#888780" points="303.7632,691.4922,307.7632,701.4922,311.7632,691.4922,307.7632,695.4922" style="stroke:#888780;stroke-width:1;"/><line style="stroke:#888780;stroke-width:1;" x1="307.7632" x2="307.7632" y1="884.1602" y2="904.1602"/><polygon fill="#888780" points="303.7632,894.1602,307.7632,904.1602,311.7632,894.1602,307.7632,898.1602" style="stroke:#888780;stroke-width:1;"/><line style="stroke:#888780;stroke-width:1;" x1="193.2219" x2="193.2219" y1="1033.4922" y2="1109.4922"/><line style="stroke:#888780;stroke-width:1;" x1="193.2219" x2="295.7632" y1="1109.4922" y2="1109.4922"/><polygon fill="#888780" points="285.7632,1105.4922,295.7632,1109.4922,285.7632,1113.4922,289.7632,1109.4922" style="stroke:#888780;stroke-width:1;"/><line style="stroke:#888780;stroke-width:1;" x1="203.2219" x2="193.2219" y1="976.3594" y2="976.3594"/><line style="stroke:#888780;stroke-width:1;" x1="193.2219" x2="193.2219" y1="976.3594" y2="998.3594"/><polygon fill="#888780" points="189.2219,988.3594,193.2219,998.3594,197.2219,988.3594,193.2219,992.3594" style="stroke:#888780;stroke-width:1;"/><line style="stroke:#888780;stroke-width:1;" x1="412.3044" x2="422.3044" y1="976.3594" y2="976.3594"/><line style="stroke:#888780;stroke-width:1;" x1="422.3044" x2="422.3044" y1="976.3594" y2="998.3594"/><polygon fill="#888780" points="418.3044,988.3594,422.3044,998.3594,426.3044,988.3594,422.3044,992.3594" style="stroke:#888780;stroke-width:1;"/><line style="stroke:#888780;stroke-width:1;" x1="422.3044" x2="422.3044" y1="1033.4922" y2="1038.4922"/><line style="stroke:#888780;stroke-width:1;" x1="422.3044" x2="307.7632" y1="1038.4922" y2="1038.4922"/><line style="stroke:#888780;stroke-width:1;" x1="307.7632" x2="307.7632" y1="1038.4922" y2="1053.4922"/><polygon fill="#888780" points="303.7632,1043.4922,307.7632,1053.4922,311.7632,1043.4922,307.7632,1047.4922" style="stroke:#888780;stroke-width:1;"/><line style="stroke:#888780;stroke-width:1;" x1="307.7632" x2="307.7632" y1="939.293" y2="964.3594"/><polygon fill="#888780" points="303.7632,954.3594,307.7632,964.3594,311.7632,954.3594,307.7632,958.3594" style="stroke:#888780;stroke-width:1;"/><line style="stroke:#888780;stroke-width:1;" x1="307.7632" x2="307.7632" y1="829.0273" y2="849.0273"/><polygon fill="#888780" points="303.7632,839.0273,307.7632,849.0273,311.7632,839.0273,307.7632,843.0273" style="stroke:#888780;stroke-width:1;"/><line style="stroke:#888780;stroke-width:1;" x1="415.9702" x2="556.6826" y1="1065.4922" y2="1065.4922"/><polygon fill="#888780" points="552.6826,959.293,556.6826,949.293,560.6826,959.293,556.6826,955.293" style="stroke:#888780;stroke-width:1;"/><line style="stroke:#888780;stroke-width:1;" x1="556.6826" x2="556.6826" y1="817.0273" y2="1065.4922"/><line style="stroke:#888780;stroke-width:1;" x1="556.6826" x2="319.7632" y1="817.0273" y2="817.0273"/><polygon fill="#888780" points="329.7632,813.0273,319.7632,817.0273,329.7632,821.0273,325.7632,817.0273" style="stroke:#888780;stroke-width:1;"/><line style="stroke:#888780;stroke-width:1;" x1="307.7632" x2="307.7632" y1="1077.4922" y2="1097.4922"/><polygon fill="#888780" points="303.7632,1087.4922,307.7632,1097.4922,311.7632,1087.4922,307.7632,1091.4922" style="stroke:#888780;stroke-width:1;"/><line style="stroke:#888780;stroke-width:1;" x1="307.7632" x2="307.7632" y1="780.625" y2="805.0273"/><polygon fill="#888780" points="303.7632,795.0273,307.7632,805.0273,311.7632,795.0273,307.7632,799.0273" style="stroke:#888780;stroke-width:1;"/><line style="stroke:#888780;stroke-width:1;" x1="391.0349" x2="578.6826" y1="768.625" y2="768.625"/><polygon fill="#888780" points="574.6826,968.793,578.6826,978.793,582.6826,968.793,578.6826,972.793" style="stroke:#888780;stroke-width:1;"/><line style="stroke:#888780;stroke-width:1;" x1="578.6826" x2="578.6826" y1="768.625" y2="1153.4922"/><line style="stroke:#888780;stroke-width:1;" x1="578.6826" x2="319.7632" y1="1153.4922" y2="1153.4922"/><polygon fill="#888780" points="329.7632,1149.4922,319.7632,1153.4922,329.7632,1157.4922,325.7632,1153.4922" style="stroke:#888780;stroke-width:1;"/><line style="stroke:#888780;stroke-width:1;" x1="307.7632" x2="307.7632" y1="1121.4922" y2="1141.4922"/><polygon fill="#888780" points="303.7632,1131.4922,307.7632,1141.4922,311.7632,1131.4922,307.7632,1135.4922" style="stroke:#888780;stroke-width:1;"/><line style="stroke:#888780;stroke-width:1;" x1="307.7632" x2="307.7632" y1="736.625" y2="756.625"/><polygon fill="#888780" points="303.7632,746.625,307.7632,756.625,311.7632,746.625,307.7632,750.625" style="stroke:#888780;stroke-width:1;"/><line style="stroke:#888780;stroke-width:1;" x1="307.7632" x2="307.7632" y1="1313.0273" y2="1333.0273"/><polygon fill="#888780" points="303.7632,1323.0273,307.7632,1333.0273,311.7632,1323.0273,307.7632,1327.0273" style="stroke:#888780;stroke-width:1;"/><line style="stroke:#888780;stroke-width:1;" x1="178.7549" x2="178.7549" y1="1462.3594" y2="1538.3594"/><line style="stroke:#888780;stroke-width:1;" x1="178.7549" x2="295.7632" y1="1538.3594" y2="1538.3594"/><polygon fill="#888780" points="285.7632,1534.3594,295.7632,1538.3594,285.7632,1542.3594,289.7632,1538.3594" style="stroke:#888780;stroke-width:1;"/><line style="stroke:#888780;stroke-width:1;" x1="188.7549" x2="178.7549" y1="1405.2266" y2="1405.2266"/><line style="stroke:#888780;stroke-width:1;" x1="178.7549" x2="178.7549" y1="1405.2266" y2="1427.2266"/><polygon fill="#888780" points="174.7549,1417.2266,178.7549,1427.2266,182.7549,1417.2266,178.7549,1421.2266" style="stroke:#888780;stroke-width:1;"/><line style="stroke:#888780;stroke-width:1;" x1="426.7715" x2="436.7715" y1="1405.2266" y2="1405.2266"/><line style="stroke:#888780;stroke-width:1;" x1="436.7715" x2="436.7715" y1="1405.2266" y2="1427.2266"/><polygon fill="#888780" points="432.7715,1417.2266,436.7715,1427.2266,440.7715,1417.2266,436.7715,1421.2266" style="stroke:#888780;stroke-width:1;"/><line style="stroke:#888780;stroke-width:1;" x1="436.7715" x2="436.7715" y1="1462.3594" y2="1467.3594"/><line style="stroke:#888780;stroke-width:1;" x1="436.7715" x2="307.7632" y1="1467.3594" y2="1467.3594"/><line style="stroke:#888780;stroke-width:1;" x1="307.7632" x2="307.7632" y1="1467.3594" y2="1482.3594"/><polygon fill="#888780" points="303.7632,1472.3594,307.7632,1482.3594,311.7632,1472.3594,307.7632,1476.3594" style="stroke:#888780;stroke-width:1;"/><line style="stroke:#888780;stroke-width:1;" x1="307.7632" x2="307.7632" y1="1368.1602" y2="1393.2266"/><polygon fill="#888780" points="303.7632,1383.2266,307.7632,1393.2266,311.7632,1383.2266,307.7632,1387.2266" style="stroke:#888780;stroke-width:1;"/><line style="stroke:#888780;stroke-width:1;" x1="307.7632" x2="307.7632" y1="1257.8945" y2="1277.8945"/><polygon fill="#888780" points="303.7632,1267.8945,307.7632,1277.8945,311.7632,1267.8945,307.7632,1271.8945" style="stroke:#888780;stroke-width:1;"/><line style="stroke:#888780;stroke-width:1;" x1="435.4055" x2="587.4695" y1="1494.3594" y2="1494.3594"/><polygon fill="#888780" points="583.4695,1388.1602,587.4695,1378.1602,591.4695,1388.1602,587.4695,1384.1602" style="stroke:#888780;stroke-width:1;"/><line style="stroke:#888780;stroke-width:1;" x1="587.4695" x2="587.4695" y1="1245.8945" y2="1494.3594"/><line style="stroke:#888780;stroke-width:1;" x1="587.4695" x2="319.7632" y1="1245.8945" y2="1245.8945"/><polygon fill="#888780" points="329.7632,1241.8945,319.7632,1245.8945,329.7632,1249.8945,325.7632,1245.8945" style="stroke:#888780;stroke-width:1;"/><line style="stroke:#888780;stroke-width:1;" x1="307.7632" x2="307.7632" y1="1506.3594" y2="1526.3594"/><polygon fill="#888780" points="303.7632,1516.3594,307.7632,1526.3594,311.7632,1516.3594,307.7632,1520.3594" style="stroke:#888780;stroke-width:1;"/><line style="stroke:#888780;stroke-width:1;" x1="307.7632" x2="307.7632" y1="1209.4922" y2="1233.8945"/><polygon fill="#888780" points="303.7632,1223.8945,307.7632,1233.8945,311.7632,1223.8945,307.7632,1227.8945" style="stroke:#888780;stroke-width:1;"/><line style="stroke:#888780;stroke-width:1;" x1="404.844" x2="609.4695" y1="1197.4922" y2="1197.4922"/><polygon fill="#888780" points="605.4695,1397.6602,609.4695,1407.6602,613.4695,1397.6602,609.4695,1401.6602" style="stroke:#888780;stroke-width:1;"/><line style="stroke:#888780;stroke-width:1;" x1="609.4695" x2="609.4695" y1="1197.4922" y2="1582.3594"/><line style="stroke:#888780;stroke-width:1;" x1="609.4695" x2="319.7632" y1="1582.3594" y2="1582.3594"/><polygon fill="#888780" points="329.7632,1578.3594,319.7632,1582.3594,329.7632,1586.3594,325.7632,1582.3594" style="stroke:#888780;stroke-width:1;"/><line style="stroke:#888780;stroke-width:1;" x1="307.7632" x2="307.7632" y1="1550.3594" y2="1570.3594"/><polygon fill="#888780" points="303.7632,1560.3594,307.7632,1570.3594,311.7632,1560.3594,307.7632,1564.3594" style="stroke:#888780;stroke-width:1;"/><line style="stroke:#888780;stroke-width:1;" x1="307.7632" x2="307.7632" y1="1165.4922" y2="1185.4922"/><polygon fill="#888780" points="303.7632,1175.4922,307.7632,1185.4922,311.7632,1175.4922,307.7632,1179.4922" style="stroke:#888780;stroke-width:1;"/><line style="stroke:#888780;stroke-width:1;" x1="307.7632" x2="307.7632" y1="478.9609" y2="536.0938"/><polygon fill="#888780" points="303.7632,526.0938,307.7632,536.0938,311.7632,526.0938,307.7632,530.0938" style="stroke:#888780;stroke-width:1;"/><line style="stroke:#888780;stroke-width:1;" x1="307.7632" x2="307.7632" y1="1686.625" y2="1706.625"/><polygon fill="#888780" points="303.7632,1696.625,307.7632,1706.625,311.7632,1696.625,307.7632,1700.625" style="stroke:#888780;stroke-width:1;"/><line style="stroke:#888780;stroke-width:1;" x1="307.7632" x2="307.7632" y1="1741.7578" y2="1761.7578"/><polygon fill="#888780" points="303.7632,1751.7578,307.7632,1761.7578,311.7632,1751.7578,307.7632,1755.7578" style="stroke:#888780;stroke-width:1;"/><line style="stroke:#888780;stroke-width:1;" x1="170.249" x2="170.249" y1="2033.5586" y2="2057.5586"/><polygon fill="#888780" points="166.249,2047.5586,170.249,2057.5586,174.249,2047.5586,170.249,2051.5586" style="stroke:#888780;stroke-width:1;"/><line style="stroke:#888780;stroke-width:1;" x1="170.249" x2="170.249" y1="2092.6914" y2="2112.6914"/><polygon fill="#888780" points="166.249,2102.6914,170.249,2112.6914,174.249,2102.6914,170.249,2106.6914" style="stroke:#888780;stroke-width:1;"/><line style="stroke:#888780;stroke-width:1;" x1="170.249" x2="170.249" y1="2147.8242" y2="2223.8242"/><line style="stroke:#888780;stroke-width:1;" x1="170.249" x2="295.7632" y1="2223.8242" y2="2223.8242"/><polygon fill="#888780" points="285.7632,2219.8242,295.7632,2223.8242,285.7632,2227.8242,289.7632,2223.8242" style="stroke:#888780;stroke-width:1;"/><line style="stroke:#888780;stroke-width:1;" x1="189.061" x2="170.249" y1="1976.4258" y2="1976.4258"/><line style="stroke:#888780;stroke-width:1;" x1="170.249" x2="170.249" y1="1976.4258" y2="1998.4258"/><polygon fill="#888780" points="166.249,1988.4258,170.249,1998.4258,174.249,1988.4258,170.249,1992.4258" style="stroke:#888780;stroke-width:1;"/><line style="stroke:#888780;stroke-width:1;" x1="426.4653" x2="445.2773" y1="1976.4258" y2="1976.4258"/><line style="stroke:#888780;stroke-width:1;" x1="445.2773" x2="445.2773" y1="1976.4258" y2="1998.4258"/><polygon fill="#888780" points="441.2773,1988.4258,445.2773,1998.4258,449.2773,1988.4258,445.2773,1992.4258" style="stroke:#888780;stroke-width:1;"/><line style="stroke:#888780;stroke-width:1;" x1="445.2773" x2="445.2773" y1="2033.5586" y2="2152.8242"/><line style="stroke:#888780;stroke-width:1;" x1="445.2773" x2="307.7632" y1="2152.8242" y2="2152.8242"/><line style="stroke:#888780;stroke-width:1;" x1="307.7632" x2="307.7632" y1="2152.8242" y2="2167.8242"/><polygon fill="#888780" points="303.7632,2157.8242,307.7632,2167.8242,311.7632,2157.8242,307.7632,2161.8242" style="stroke:#888780;stroke-width:1;"/><line style="stroke:#888780;stroke-width:1;" x1="307.7632" x2="307.7632" y1="1944.4258" y2="1964.4258"/><polygon fill="#888780" points="303.7632,1954.4258,307.7632,1964.4258,311.7632,1954.4258,307.7632,1958.4258" style="stroke:#888780;stroke-width:1;"/><line style="stroke:#888780;stroke-width:1;" x1="307.7632" x2="307.7632" y1="1889.293" y2="1909.293"/><polygon fill="#888780" points="303.7632,1899.293,307.7632,1909.293,311.7632,1899.293,307.7632,1903.293" style="stroke:#888780;stroke-width:1;"/><line style="stroke:#888780;stroke-width:1;" x1="398.8875" x2="575.0566" y1="2179.8242" y2="2179.8242"/><polygon fill="#888780" points="571.0566,2053.5586,575.0566,2043.5586,579.0566,2053.5586,575.0566,2049.5586" style="stroke:#888780;stroke-width:1;"/><line style="stroke:#888780;stroke-width:1;" x1="575.0566" x2="575.0566" y1="1877.293" y2="2179.8242"/><line style="stroke:#888780;stroke-width:1;" x1="575.0566" x2="319.7632" y1="1877.293" y2="1877.293"/><polygon fill="#888780" points="329.7632,1873.293,319.7632,1877.293,329.7632,1881.293,325.7632,1877.293" style="stroke:#888780;stroke-width:1;"/><line style="stroke:#888780;stroke-width:1;" x1="307.7632" x2="307.7632" y1="2191.8242" y2="2211.8242"/><polygon fill="#888780" points="303.7632,2201.8242,307.7632,2211.8242,311.7632,2201.8242,307.7632,2205.8242" style="stroke:#888780;stroke-width:1;"/><line style="stroke:#888780;stroke-width:1;" x1="307.7632" x2="307.7632" y1="1840.8906" y2="1865.293"/><polygon fill="#888780" points="303.7632,1855.293,307.7632,1865.293,311.7632,1855.293,307.7632,1859.293" style="stroke:#888780;stroke-width:1;"/><line style="stroke:#888780;stroke-width:1;" x1="387.1436" x2="597.0566" y1="1828.8906" y2="1828.8906"/><polygon fill="#888780" points="593.0566,2063.0586,597.0566,2073.0586,601.0566,2063.0586,597.0566,2067.0586" style="stroke:#888780;stroke-width:1;"/><line style="stroke:#888780;stroke-width:1;" x1="597.0566" x2="597.0566" y1="1828.8906" y2="2267.8242"/><line style="stroke:#888780;stroke-width:1;" x1="597.0566" x2="319.7632" y1="2267.8242" y2="2267.8242"/><polygon fill="#888780" points="329.7632,2263.8242,319.7632,2267.8242,329.7632,2271.8242,325.7632,2267.8242" style="stroke:#888780;stroke-width:1;"/><line style="stroke:#888780;stroke-width:1;" x1="307.7632" x2="307.7632" y1="2235.8242" y2="2255.8242"/><polygon fill="#888780" points="303.7632,2245.8242,307.7632,2255.8242,311.7632,2245.8242,307.7632,2249.8242" style="stroke:#888780;stroke-width:1;"/><line style="stroke:#888780;stroke-width:1;" x1="307.7632" x2="307.7632" y1="1796.8906" y2="1816.8906"/><polygon fill="#888780" points="303.7632,1806.8906,307.7632,1816.8906,311.7632,1806.8906,307.7632,1810.8906" style="stroke:#888780;stroke-width:1;"/><line style="stroke:#888780;stroke-width:1;" x1="307.7632" x2="307.7632" y1="1594.3594" y2="1651.4922"/><polygon fill="#888780" points="303.7632,1641.4922,307.7632,1651.4922,311.7632,1641.4922,307.7632,1645.4922" style="stroke:#888780;stroke-width:1;"/><line style="stroke:#888780;stroke-width:1;" x1="307.7632" x2="307.7632" y1="2279.8242" y2="2311.8242"/><polygon fill="#888780" points="303.7632,2301.8242,307.7632,2311.8242,311.7632,2301.8242,307.7632,2305.8242" style="stroke:#888780;stroke-width:1;"/><?plantuml-src nLLDKzim4BtdLsZIIpZq8oGf8JbqRCTkEzDXEeJfNLYRH8qi1KaEb0u_fjD3VmX_h6lP3ehZ3j132nmyksztdz_RDPPR0IGH-OqYJ960PLnsEcRDvOPgcf4PB6WkRAAaFQCPaEu745kmFANa37BejaFd_1P8Vz2UZ9HGchmuZl0ty221rkgwIex7uvFncsRIgnubetWKj07AsVrcwcB5qxK4OqZ_rR6NF5UvP97I4ZHvwyNdAyhKDPTBig32W9S9QRfUwhBCSKdSZpymjNpBxRTGQGRQc-mhIoiG-TuXXptZE9ubSP5nFUgt7Wo3y0IZdXA3Q30SdrQnMlYxjaapJZCbMVl0P9GCazbV3kot3vnRggqRLvM6m_0uE6q7nnMpGsZHfTD1jEMMAqcwRal9I_99BRdikgf9HBM69TM4RWHkv_sl-vzgMYJY6tx9DR4WA650H54pxM16mmQenGS4VPGBfJEiJZKma2cdt4nTYYz8Bte8aktz3y4PDU-EY5s19BqvpuuSag1hVLpBU1Aaw3OsCznOoEYqIbzge6lt3BXHf7U657UbIHI7SLYp1LnPZwshaOmlThJ9zOhZuVOkGA8y9Ov8jSKRbHQG758jgTsrIlSUZCNnnOpFMh7SAbC96UOcnOwRAkfhk1URWu0KUpvWNVWBDpaL_1R332_855-LNRvJwZa30ryfeRP68XbrbSEXffv7s3iG5ZJ2ht8gBPg0vF6lAgvLdiofs1PxuC2xFQYzZ4lqRZZIIrL6J5vufjfSBNmDai4ihcL8bLnmt9QzthwzRGQtMqpLeGfrnzhmFrXkojUiYjgzRn8fMpPSg4Hbt6oKH6h2AVke5tYrLB_69jGz-Klm11jc-zCg6AF_sunsCPvdIQFuETQq7sj4POgVhw97UR70E5EDUtMn_NFrGlwrkd3p6DDoHfr-pFweabtNXOwSx_0UQNJZgSU6crKV17xvRLv-GHmfKlp7g0Sop-t9EPu1pRLt3yMdXrkGPlflDgUXtnCtPbVrl1t1Tzpy1W00?></g></svg>