<?plantuml 1.2026.1?><svg xmlns="http://www.w3.org/2000/svg" xmlns:xlink="http://www.w3.org/1999/xlink" contentStyleType="text/css" data-diagram-type="ACTIVITY" height="1660px" preserveAspectRatio="none" style="width:352px;height:1660px;background:#FFFFFF;" version="1.1" viewBox="0 0 352 1660" width="352px" zoomAndPan="magnify"><defs/><g><ellipse cx="164.6606" cy="20" fill="#222222" rx="10" ry="10" style="stroke:#222222;stroke-width:1;"/><rect fill="#F1F1F1" height="33.9688" rx="12.5" ry="12.5" style="stroke:#181818;stroke-width:0.5;" width="133.584" x="97.8687" y="50"/><text fill="#000000" font-family="sans-serif" font-size="12" lengthAdjust="spacing" textLength="113.584" x="107.8687" y="71.1387">Carregar aplica&#231;&#227;o</text><rect fill="#F1F1F1" height="33.9688" rx="12.5" ry="12.5" style="stroke:#181818;stroke-width:0.5;" width="132.3535" x="98.4839" y="103.9688"/><text fill="#000000" font-family="sans-serif" font-size="12" lengthAdjust="spacing" textLength="112.3535" x="108.4839" y="125.1074">Exibir tela de login</text><rect fill="#F1F1F1" height="33.9688" rx="12.5" ry="12.5" style="stroke:#181818;stroke-width:0.5;" width="143.8262" x="92.7476" y="201.9375"/><text fill="#000000" font-family="sans-serif" font-size="12" lengthAdjust="spacing" textLength="123.8262" x="102.7476" y="223.0762">Informar credenciais</text><polygon fill="#F1F1F1" points="108.4226,255.9063,220.8987,255.9063,232.8987,267.9063,220.8987,279.9063,108.4226,279.9063,96.4226,267.9063,108.4226,255.9063" style="stroke:#181818;stroke-width:0.5;"/><text fill="#000000" font-family="sans-serif" font-size="11" lengthAdjust="spacing" textLength="112.4761" x="108.4226" y="271.7144">Credenciais v&#225;lidas?</text><text fill="#000000" font-family="sans-serif" font-size="11" lengthAdjust="spacing" textLength="20.7539" x="75.6687" y="265.312">Sim</text><text fill="#000000" font-family="sans-serif" font-size="11" lengthAdjust="spacing" textLength="21.6992" x="232.8987" y="265.312">N&#227;o</text><rect fill="#F1F1F1" height="33.9688" rx="12.5" ry="12.5" style="stroke:#181818;stroke-width:0.5;" width="117.7637" x="27.5408" y="289.9063"/><text fill="#000000" font-family="sans-serif" font-size="12" lengthAdjust="spacing" textLength="97.7637" x="37.5408" y="311.0449">Acessar sistema</text><rect fill="#F1F1F1" height="33.9688" rx="12.5" ry="12.5" style="stroke:#181818;stroke-width:0.5;" width="134.1699" x="175.8137" y="289.9063"/><text fill="#000000" font-family="sans-serif" font-size="12" lengthAdjust="spacing" textLength="114.1699" x="185.8137" y="311.0449">Exibir erro de login</text><polygon fill="#F1F1F1" points="164.6606,157.9375,176.6606,169.9375,164.6606,181.9375,152.6606,169.9375,164.6606,157.9375" style="stroke:#181818;stroke-width:0.5;"/><polygon fill="#F1F1F1" points="110.7322,343.875,218.5891,343.875,230.5891,355.875,218.5891,367.875,110.7322,367.875,98.7322,355.875,110.7322,343.875" style="stroke:#181818;stroke-width:0.5;"/><text fill="#000000" font-family="sans-serif" font-size="11" lengthAdjust="spacing" textLength="107.8569" x="110.7322" y="359.6831">Tentar novamente?</text><text fill="#000000" font-family="sans-serif" font-size="11" lengthAdjust="spacing" textLength="20.7539" x="230.5891" y="353.2808">Sim</text><polygon fill="#F1F1F1" points="164.6606,387.875,176.6606,399.875,164.6606,411.875,152.6606,399.875,164.6606,387.875" style="stroke:#181818;stroke-width:0.5;"/><rect fill="#F1F1F1" height="33.9688" rx="12.5" ry="12.5" style="stroke:#181818;stroke-width:0.5;" width="118.2031" x="105.5591" y="431.875"/><text fill="#000000" font-family="sans-serif" font-size="12" lengthAdjust="spacing" textLength="98.2031" x="115.5591" y="453.0137">Buscar produtos</text><rect fill="#F1F1F1" height="33.9688" rx="12.5" ry="12.5" style="stroke:#181818;stroke-width:0.5;" width="111.1309" x="109.0952" y="485.8438"/><text fill="#000000" font-family="sans-serif" font-size="12" lengthAdjust="spacing" textLength="91.1309" x="119.0952" y="506.9824">Exibir produtos</text><rect fill="#F1F1F1" height="33.9688" rx="12.5" ry="12.5" style="stroke:#181818;stroke-width:0.5;" width="143.3164" x="93.0024" y="583.8125"/><text fill="#000000" font-family="sans-serif" font-size="12" lengthAdjust="spacing" textLength="123.3164" x="103.0024" y="604.9512">Selecionar categoria</text><rect fill="#F1F1F1" height="33.9688" rx="12.5" ry="12.5" style="stroke:#181818;stroke-width:0.5;" width="112.7246" x="108.2983" y="637.7813"/><text fill="#000000" font-family="sans-serif" font-size="12" lengthAdjust="spacing" textLength="92.7246" x="118.2983" y="658.9199">Filtrar produtos</text><polygon fill="#F1F1F1" points="110.6301,701.7344,218.6912,701.7344,230.6912,713.7344,218.6912,725.7344,110.6301,725.7344,98.6301,713.7344,110.6301,701.7344" style="stroke:#181818;stroke-width:0.5;"/><text fill="#000000" font-family="sans-serif" font-size="11" lengthAdjust="spacing" textLength="108.061" x="110.6301" y="717.5425">Produto dispon&#237;vel?</text><text fill="#000000" font-family="sans-serif" font-size="11" lengthAdjust="spacing" textLength="20.7539" x="77.8762" y="711.1401">Sim</text><text fill="#000000" font-family="sans-serif" font-size="11" lengthAdjust="spacing" textLength="21.6992" x="230.6912" y="711.1401">N&#227;o</text><rect fill="#F1F1F1" height="33.9688" rx="12.5" ry="12.5" style="stroke:#181818;stroke-width:0.5;" width="148.3555" x="11" y="735.7344"/><text fill="#000000" font-family="sans-serif" font-size="12" lengthAdjust="spacing" textLength="128.3555" x="21" y="756.873">Adicionar ao carrinho</text><rect fill="#F1F1F1" height="33.9688" rx="12.5" ry="12.5" style="stroke:#181818;stroke-width:0.5;" width="129.5762" x="179.3555" y="735.7344"/><text fill="#000000" font-family="sans-serif" font-size="12" lengthAdjust="spacing" textLength="109.5762" x="189.3555" y="756.873">Exibir indispon&#237;vel</text><polygon fill="#F1F1F1" points="164.6606,775.7031,176.6606,787.7031,164.6606,799.7031,152.6606,787.7031,164.6606,775.7031" style="stroke:#181818;stroke-width:0.5;"/><polygon fill="#F1F1F1" points="164.6606,539.8125,176.6606,551.8125,164.6606,563.8125,152.6606,551.8125,164.6606,539.8125" style="stroke:#181818;stroke-width:0.5;"/><polygon fill="#F1F1F1" points="105.8875,819.7031,223.4338,819.7031,235.4338,831.7031,223.4338,843.7031,105.8875,843.7031,93.8875,831.7031,105.8875,819.7031" style="stroke:#181818;stroke-width:0.5;"/><text fill="#000000" font-family="sans-serif" font-size="11" lengthAdjust="spacing" textLength="117.5464" x="105.8875" y="835.5112">Adicionar mais itens?</text><text fill="#000000" font-family="sans-serif" font-size="11" lengthAdjust="spacing" textLength="20.7539" x="235.4338" y="829.1089">Sim</text><rect fill="#F1F1F1" height="33.9688" rx="12.5" ry="12.5" style="stroke:#181818;stroke-width:0.5;" width="164.4629" x="82.4292" y="863.7031"/><text fill="#000000" font-family="sans-serif" font-size="12" lengthAdjust="spacing" textLength="144.4629" x="92.4292" y="884.8418">Alterar quantidade (+/-)</text><rect fill="#F1F1F1" height="33.9688" rx="12.5" ry="12.5" style="stroke:#181818;stroke-width:0.5;" width="131.5273" x="98.897" y="917.6719"/><text fill="#000000" font-family="sans-serif" font-size="12" lengthAdjust="spacing" textLength="111.5273" x="108.897" y="938.8105">Visualizar carrinho</text><rect fill="#F1F1F1" height="33.9688" rx="12.5" ry="12.5" style="stroke:#181818;stroke-width:0.5;" width="100.1445" x="114.5884" y="971.6406"/><text fill="#000000" font-family="sans-serif" font-size="12" lengthAdjust="spacing" textLength="80.1445" x="124.5884" y="992.7793">Calcular total</text><rect fill="#F1F1F1" height="33.9688" rx="12.5" ry="12.5" style="stroke:#181818;stroke-width:0.5;" width="155.3633" x="86.979" y="1069.6094"/><text fill="#000000" font-family="sans-serif" font-size="12" lengthAdjust="spacing" textLength="135.3633" x="96.979" y="1090.748">Selecionar pagamento</text><polygon fill="#F1F1F1" points="112.1582,1123.5781,217.1631,1123.5781,229.1631,1135.5781,217.1631,1147.5781,112.1582,1147.5781,100.1582,1135.5781,112.1582,1123.5781" style="stroke:#181818;stroke-width:0.5;"/><text fill="#000000" font-family="sans-serif" font-size="11" lengthAdjust="spacing" textLength="105.0049" x="112.1582" y="1139.3862">Pagamento v&#225;lido?</text><text fill="#000000" font-family="sans-serif" font-size="11" lengthAdjust="spacing" textLength="20.7539" x="79.4043" y="1132.9839">Sim</text><text fill="#000000" font-family="sans-serif" font-size="11" lengthAdjust="spacing" textLength="21.6992" x="229.1631" y="1132.9839">N&#227;o</text><rect fill="#F1F1F1" height="33.9688" rx="12.5" ry="12.5" style="stroke:#181818;stroke-width:0.5;" width="137.2871" x="170.5195" y="1157.5781"/><text fill="#000000" font-family="sans-serif" font-size="12" lengthAdjust="spacing" textLength="117.2871" x="180.5195" y="1178.7168">Corrigir pagamento</text><polygon fill="#F1F1F1" points="164.6606,1025.6094,176.6606,1037.6094,164.6606,1049.6094,152.6606,1037.6094,164.6606,1025.6094" style="stroke:#181818;stroke-width:0.5;"/><polygon fill="#F1F1F1" points="110.7322,1211.5469,218.5891,1211.5469,230.5891,1223.5469,218.5891,1235.5469,110.7322,1235.5469,98.7322,1223.5469,110.7322,1211.5469" style="stroke:#181818;stroke-width:0.5;"/><text fill="#000000" font-family="sans-serif" font-size="11" lengthAdjust="spacing" textLength="107.8569" x="110.7322" y="1227.355">Tentar novamente?</text><text fill="#000000" font-family="sans-serif" font-size="11" lengthAdjust="spacing" textLength="20.7539" x="230.5891" y="1220.9526">Sim</text><polygon fill="#F1F1F1" points="164.6606,1255.5469,176.6606,1267.5469,164.6606,1279.5469,152.6606,1267.5469,164.6606,1255.5469" style="stroke:#181818;stroke-width:0.5;"/><rect fill="#F1F1F1" height="33.9688" rx="12.5" ry="12.5" style="stroke:#181818;stroke-width:0.5;" width="115.1738" x="107.0737" y="1343.5469"/><text fill="#000000" font-family="sans-serif" font-size="12" lengthAdjust="spacing" textLength="95.1738" x="117.0737" y="1364.6855">Finalizar pedido</text><polygon fill="#F1F1F1" points="139.2607,1397.5156,190.0605,1397.5156,202.0605,1409.5156,190.0605,1421.5156,139.2607,1421.5156,127.2607,1409.5156,139.2607,1397.5156" style="stroke:#181818;stroke-width:0.5;"/><text fill="#000000" font-family="sans-serif" font-size="11" lengthAdjust="spacing" textLength="50.7998" x="139.2607" y="1413.3237">Sucesso?</text><text fill="#000000" font-family="sans-serif" font-size="11" lengthAdjust="spacing" textLength="20.7539" x="106.5068" y="1406.9214">Sim</text><text fill="#000000" font-family="sans-serif" font-size="11" lengthAdjust="spacing" textLength="21.6992" x="202.0605" y="1406.9214">N&#227;o</text><rect fill="#F1F1F1" height="33.9688" rx="12.5" ry="12.5" style="stroke:#181818;stroke-width:0.5;" width="115.1328" x="43.4946" y="1431.5156"/><text fill="#000000" font-family="sans-serif" font-size="12" lengthAdjust="spacing" textLength="95.1328" x="53.4946" y="1452.6543">Limpar carrinho</text><rect fill="#F1F1F1" height="33.9688" rx="12.5" ry="12.5" style="stroke:#181818;stroke-width:0.5;" width="132.0898" x="35.0161" y="1485.4844"/><text fill="#000000" font-family="sans-serif" font-size="12" lengthAdjust="spacing" textLength="112.0898" x="45.0161" y="1506.623">Exibir confirma&#231;&#227;o</text><rect fill="#F1F1F1" height="33.9688" rx="12.5" ry="12.5" style="stroke:#181818;stroke-width:0.5;" width="82.3086" x="187.106" y="1431.5156"/><text fill="#000000" font-family="sans-serif" font-size="12" lengthAdjust="spacing" textLength="62.3086" x="197.106" y="1452.6543">Exibir erro</text><polygon fill="#F1F1F1" points="164.6606,1299.5469,176.6606,1311.5469,164.6606,1323.5469,152.6606,1311.5469,164.6606,1299.5469" style="stroke:#181818;stroke-width:0.5;"/><polygon fill="#F1F1F1" points="110.7322,1539.4531,218.5891,1539.4531,230.5891,1551.4531,218.5891,1563.4531,110.7322,1563.4531,98.7322,1551.4531,110.7322,1539.4531" style="stroke:#181818;stroke-width:0.5;"/><text fill="#000000" font-family="sans-serif" font-size="11" lengthAdjust="spacing" textLength="107.8569" x="110.7322" y="1555.2612">Tentar novamente?</text><text fill="#000000" font-family="sans-serif" font-size="11" lengthAdjust="spacing" textLength="20.7539" x="230.5891" y="1548.8589">Sim</text><polygon fill="#F1F1F1" points="164.6606,1583.4531,176.6606,1595.4531,164.6606,1607.4531,152.6606,1595.4531,164.6606,1583.4531" style="stroke:#181818;stroke-width:0.5;"/><ellipse cx="164.6606" cy="1638.4531" fill="none" rx="11" ry="11" style="stroke:#222222;stroke-width:1;"/><ellipse cx="164.6606" cy="1638.4531" fill="#222222" rx="6" ry="6" style="stroke:#222222;stroke-width:1;"/><line style="stroke:#181818;stroke-width:1;" x1="164.6606" x2="164.6606" y1="30" y2="50"/><polygon fill="#181818" points="160.6606,40,164.6606,50,168.6606,40,164.6606,44" style="stroke:#181818;stroke-width:1;"/><line style="stroke:#181818;stroke-width:1;" x1="164.6606" x2="164.6606" y1="83.9688" y2="103.9688"/><polygon fill="#181818" points="160.6606,93.9688,164.6606,103.9688,168.6606,93.9688,164.6606,97.9688" style="stroke:#181818;stroke-width:1;"/><line style="stroke:#181818;stroke-width:1;" x1="86.4226" x2="86.4226" y1="323.875" y2="399.875"/><line style="stroke:#181818;stroke-width:1;" x1="86.4226" x2="152.6606" y1="399.875" y2="399.875"/><polygon fill="#181818" points="142.6606,395.875,152.6606,399.875,142.6606,403.875,146.6606,399.875" style="stroke:#181818;stroke-width:1;"/><line style="stroke:#181818;stroke-width:1;" x1="96.4226" x2="86.4226" y1="267.9063" y2="267.9063"/><line style="stroke:#181818;stroke-width:1;" x1="86.4226" x2="86.4226" y1="267.9063" y2="289.9063"/><polygon fill="#181818" points="82.4226,279.9063,86.4226,289.9063,90.4226,279.9063,86.4226,283.9063" style="stroke:#181818;stroke-width:1;"/><line style="stroke:#181818;stroke-width:1;" x1="232.8987" x2="242.8987" y1="267.9063" y2="267.9063"/><line style="stroke:#181818;stroke-width:1;" x1="242.8987" x2="242.8987" y1="267.9063" y2="289.9063"/><polygon fill="#181818" points="238.8987,279.9063,242.8987,289.9063,246.8987,279.9063,242.8987,283.9063" style="stroke:#181818;stroke-width:1;"/><line style="stroke:#181818;stroke-width:1;" x1="242.8987" x2="242.8987" y1="323.875" y2="328.875"/><line style="stroke:#181818;stroke-width:1;" x1="242.8987" x2="164.6606" y1="328.875" y2="328.875"/><line style="stroke:#181818;stroke-width:1;" x1="164.6606" x2="164.6606" y1="328.875" y2="343.875"/><polygon fill="#181818" points="160.6606,333.875,164.6606,343.875,168.6606,333.875,164.6606,337.875" style="stroke:#181818;stroke-width:1;"/><line style="stroke:#181818;stroke-width:1;" x1="164.6606" x2="164.6606" y1="235.9063" y2="255.9063"/><polygon fill="#181818" points="160.6606,245.9063,164.6606,255.9063,168.6606,245.9063,164.6606,249.9063" style="stroke:#181818;stroke-width:1;"/><line style="stroke:#181818;stroke-width:1;" x1="164.6606" x2="164.6606" y1="181.9375" y2="201.9375"/><polygon fill="#181818" points="160.6606,191.9375,164.6606,201.9375,168.6606,191.9375,164.6606,195.9375" style="stroke:#181818;stroke-width:1;"/><line style="stroke:#181818;stroke-width:1;" x1="230.5891" x2="326.1606" y1="355.875" y2="355.875"/><polygon fill="#181818" points="322.1606,285.9063,326.1606,275.9063,330.1606,285.9063,326.1606,281.9063" style="stroke:#181818;stroke-width:1;"/><line style="stroke:#181818;stroke-width:1;" x1="326.1606" x2="326.1606" y1="169.9375" y2="355.875"/><line style="stroke:#181818;stroke-width:1;" x1="326.1606" x2="176.6606" y1="169.9375" y2="169.9375"/><polygon fill="#181818" points="186.6606,165.9375,176.6606,169.9375,186.6606,173.9375,182.6606,169.9375" style="stroke:#181818;stroke-width:1;"/><line style="stroke:#181818;stroke-width:1;" x1="164.6606" x2="164.6606" y1="367.875" y2="387.875"/><polygon fill="#181818" points="160.6606,377.875,164.6606,387.875,168.6606,377.875,164.6606,381.875" style="stroke:#181818;stroke-width:1;"/><line style="stroke:#181818;stroke-width:1;" x1="164.6606" x2="164.6606" y1="137.9375" y2="157.9375"/><polygon fill="#181818" points="160.6606,147.9375,164.6606,157.9375,168.6606,147.9375,164.6606,151.9375" style="stroke:#181818;stroke-width:1;"/><line style="stroke:#181818;stroke-width:1;" x1="164.6606" x2="164.6606" y1="411.875" y2="431.875"/><polygon fill="#181818" points="160.6606,421.875,164.6606,431.875,168.6606,421.875,164.6606,425.875" style="stroke:#181818;stroke-width:1;"/><line style="stroke:#181818;stroke-width:1;" x1="164.6606" x2="164.6606" y1="465.8438" y2="485.8438"/><polygon fill="#181818" points="160.6606,475.8438,164.6606,485.8438,168.6606,475.8438,164.6606,479.8438" style="stroke:#181818;stroke-width:1;"/><line style="stroke:#181818;stroke-width:1;" x1="164.6606" x2="164.6606" y1="617.7813" y2="637.7813"/><polygon fill="#181818" points="160.6606,627.7813,164.6606,637.7813,168.6606,627.7813,164.6606,631.7813" style="stroke:#181818;stroke-width:1;"/><line style="stroke:#181818;stroke-width:1;" x1="98.6301" x2="85.1777" y1="713.7344" y2="713.7344"/><line style="stroke:#181818;stroke-width:1;" x1="85.1777" x2="85.1777" y1="713.7344" y2="735.7344"/><polygon fill="#181818" points="81.1777,725.7344,85.1777,735.7344,89.1777,725.7344,85.1777,729.7344" style="stroke:#181818;stroke-width:1;"/><line style="stroke:#181818;stroke-width:1;" x1="230.6912" x2="244.1436" y1="713.7344" y2="713.7344"/><line style="stroke:#181818;stroke-width:1;" x1="244.1436" x2="244.1436" y1="713.7344" y2="735.7344"/><polygon fill="#181818" points="240.1436,725.7344,244.1436,735.7344,248.1436,725.7344,244.1436,729.7344" style="stroke:#181818;stroke-width:1;"/><line style="stroke:#181818;stroke-width:1;" x1="85.1777" x2="85.1777" y1="769.7031" y2="787.7031"/><line style="stroke:#181818;stroke-width:1;" x1="85.1777" x2="152.6606" y1="787.7031" y2="787.7031"/><polygon fill="#181818" points="142.6606,783.7031,152.6606,787.7031,142.6606,791.7031,146.6606,787.7031" style="stroke:#181818;stroke-width:1;"/><line style="stroke:#181818;stroke-width:1;" x1="244.1436" x2="244.1436" y1="769.7031" y2="787.7031"/><line style="stroke:#181818;stroke-width:1;" x1="244.1436" x2="176.6606" y1="787.7031" y2="787.7031"/><polygon fill="#181818" points="186.6606,783.7031,176.6606,787.7031,186.6606,791.7031,182.6606,787.7031" style="stroke:#181818;stroke-width:1;"/><line style="stroke:#181818;stroke-width:1;" x1="164.6606" x2="164.6606" y1="671.75" y2="701.7344"/><polygon fill="#181818" points="160.6606,691.7344,164.6606,701.7344,168.6606,691.7344,164.6606,695.7344" style="stroke:#181818;stroke-width:1;"/><line style="stroke:#181818;stroke-width:1;" x1="164.6606" x2="164.6606" y1="563.8125" y2="583.8125"/><polygon fill="#181818" points="160.6606,573.8125,164.6606,583.8125,168.6606,573.8125,164.6606,577.8125" style="stroke:#181818;stroke-width:1;"/><line style="stroke:#181818;stroke-width:1;" x1="235.4338" x2="325.1086" y1="831.7031" y2="831.7031"/><polygon fill="#181818" points="321.1086,691.75,325.1086,681.75,329.1086,691.75,325.1086,687.75" style="stroke:#181818;stroke-width:1;"/><line style="stroke:#181818;stroke-width:1;" x1="325.1086" x2="325.1086" y1="551.8125" y2="831.7031"/><line style="stroke:#181818;stroke-width:1;" x1="325.1086" x2="176.6606" y1="551.8125" y2="551.8125"/><polygon fill="#181818" points="186.6606,547.8125,176.6606,551.8125,186.6606,555.8125,182.6606,551.8125" style="stroke:#181818;stroke-width:1;"/><line style="stroke:#181818;stroke-width:1;" x1="164.6606" x2="164.6606" y1="799.7031" y2="819.7031"/><polygon fill="#181818" points="160.6606,809.7031,164.6606,819.7031,168.6606,809.7031,164.6606,813.7031" style="stroke:#181818;stroke-width:1;"/><line style="stroke:#181818;stroke-width:1;" x1="164.6606" x2="164.6606" y1="519.8125" y2="539.8125"/><polygon fill="#181818" points="160.6606,529.8125,164.6606,539.8125,168.6606,529.8125,164.6606,533.8125" style="stroke:#181818;stroke-width:1;"/><line style="stroke:#181818;stroke-width:1;" x1="164.6606" x2="164.6606" y1="843.7031" y2="863.7031"/><polygon fill="#181818" points="160.6606,853.7031,164.6606,863.7031,168.6606,853.7031,164.6606,857.7031" style="stroke:#181818;stroke-width:1;"/><line style="stroke:#181818;stroke-width:1;" x1="164.6606" x2="164.6606" y1="897.6719" y2="917.6719"/><polygon fill="#181818" points="160.6606,907.6719,164.6606,917.6719,168.6606,907.6719,164.6606,911.6719" style="stroke:#181818;stroke-width:1;"/><line style="stroke:#181818;stroke-width:1;" x1="164.6606" x2="164.6606" y1="951.6406" y2="971.6406"/><polygon fill="#181818" points="160.6606,961.6406,164.6606,971.6406,168.6606,961.6406,164.6606,965.6406" style="stroke:#181818;stroke-width:1;"/><line style="stroke:#181818;stroke-width:1;" x1="100.1582" x2="90.1582" y1="1135.5781" y2="1135.5781"/><line style="stroke:#181818;stroke-width:1;" x1="90.1582" x2="90.1582" y1="1135.5781" y2="1267.5469"/><line style="stroke:#181818;stroke-width:1;" x1="90.1582" x2="152.6606" y1="1267.5469" y2="1267.5469"/><polygon fill="#181818" points="142.6606,1263.5469,152.6606,1267.5469,142.6606,1271.5469,146.6606,1267.5469" style="stroke:#181818;stroke-width:1;"/><line style="stroke:#181818;stroke-width:1;" x1="229.1631" x2="239.1631" y1="1135.5781" y2="1135.5781"/><line style="stroke:#181818;stroke-width:1;" x1="239.1631" x2="239.1631" y1="1135.5781" y2="1157.5781"/><polygon fill="#181818" points="235.1631,1147.5781,239.1631,1157.5781,243.1631,1147.5781,239.1631,1151.5781" style="stroke:#181818;stroke-width:1;"/><line style="stroke:#181818;stroke-width:1;" x1="239.1631" x2="239.1631" y1="1191.5469" y2="1196.5469"/><line style="stroke:#181818;stroke-width:1;" x1="239.1631" x2="164.6606" y1="1196.5469" y2="1196.5469"/><line style="stroke:#181818;stroke-width:1;" x1="164.6606" x2="164.6606" y1="1196.5469" y2="1211.5469"/><polygon fill="#181818" points="160.6606,1201.5469,164.6606,1211.5469,168.6606,1201.5469,164.6606,1205.5469" style="stroke:#181818;stroke-width:1;"/><line style="stroke:#181818;stroke-width:1;" x1="164.6606" x2="164.6606" y1="1103.5781" y2="1123.5781"/><polygon fill="#181818" points="160.6606,1113.5781,164.6606,1123.5781,168.6606,1113.5781,164.6606,1117.5781" style="stroke:#181818;stroke-width:1;"/><line style="stroke:#181818;stroke-width:1;" x1="164.6606" x2="164.6606" y1="1049.6094" y2="1069.6094"/><polygon fill="#181818" points="160.6606,1059.6094,164.6606,1069.6094,168.6606,1059.6094,164.6606,1063.6094" style="stroke:#181818;stroke-width:1;"/><line style="stroke:#181818;stroke-width:1;" x1="230.5891" x2="323.9836" y1="1223.5469" y2="1223.5469"/><polygon fill="#181818" points="319.9836,1136.0781,323.9836,1126.0781,327.9836,1136.0781,323.9836,1132.0781" style="stroke:#181818;stroke-width:1;"/><line style="stroke:#181818;stroke-width:1;" x1="323.9836" x2="323.9836" y1="1037.6094" y2="1223.5469"/><line style="stroke:#181818;stroke-width:1;" x1="323.9836" x2="176.6606" y1="1037.6094" y2="1037.6094"/><polygon fill="#181818" points="186.6606,1033.6094,176.6606,1037.6094,186.6606,1041.6094,182.6606,1037.6094" style="stroke:#181818;stroke-width:1;"/><line style="stroke:#181818;stroke-width:1;" x1="164.6606" x2="164.6606" y1="1235.5469" y2="1255.5469"/><polygon fill="#181818" points="160.6606,1245.5469,164.6606,1255.5469,168.6606,1245.5469,164.6606,1249.5469" style="stroke:#181818;stroke-width:1;"/><line style="stroke:#181818;stroke-width:1;" x1="164.6606" x2="164.6606" y1="1005.6094" y2="1025.6094"/><polygon fill="#181818" points="160.6606,1015.6094,164.6606,1025.6094,168.6606,1015.6094,164.6606,1019.6094" style="stroke:#181818;stroke-width:1;"/><line style="stroke:#181818;stroke-width:1;" x1="101.061" x2="101.061" y1="1465.4844" y2="1485.4844"/><polygon fill="#181818" points="97.061,1475.4844,101.061,1485.4844,105.061,1475.4844,101.061,1479.4844" style="stroke:#181818;stroke-width:1;"/><line style="stroke:#181818;stroke-width:1;" x1="101.061" x2="101.061" y1="1519.4531" y2="1595.4531"/><line style="stroke:#181818;stroke-width:1;" x1="101.061" x2="152.6606" y1="1595.4531" y2="1595.4531"/><polygon fill="#181818" points="142.6606,1591.4531,152.6606,1595.4531,142.6606,1599.4531,146.6606,1595.4531" style="stroke:#181818;stroke-width:1;"/><line style="stroke:#181818;stroke-width:1;" x1="127.2607" x2="101.061" y1="1409.5156" y2="1409.5156"/><line style="stroke:#181818;stroke-width:1;" x1="101.061" x2="101.061" y1="1409.5156" y2="1431.5156"/><polygon fill="#181818" points="97.061,1421.5156,101.061,1431.5156,105.061,1421.5156,101.061,1425.5156" style="stroke:#181818;stroke-width:1;"/><line style="stroke:#181818;stroke-width:1;" x1="202.0605" x2="228.2603" y1="1409.5156" y2="1409.5156"/><line style="stroke:#181818;stroke-width:1;" x1="228.2603" x2="228.2603" y1="1409.5156" y2="1431.5156"/><polygon fill="#181818" points="224.2603,1421.5156,228.2603,1431.5156,232.2603,1421.5156,228.2603,1425.5156" style="stroke:#181818;stroke-width:1;"/><line style="stroke:#181818;stroke-width:1;" x1="228.2603" x2="228.2603" y1="1465.4844" y2="1524.4531"/><line style="stroke:#181818;stroke-width:1;" x1="228.2603" x2="164.6606" y1="1524.4531" y2="1524.4531"/><line style="stroke:#181818;stroke-width:1;" x1="164.6606" x2="164.6606" y1="1524.4531" y2="1539.4531"/><polygon fill="#181818" points="160.6606,1529.4531,164.6606,1539.4531,168.6606,1529.4531,164.6606,1533.4531" style="stroke:#181818;stroke-width:1;"/><line style="stroke:#181818;stroke-width:1;" x1="164.6606" x2="164.6606" y1="1377.5156" y2="1397.5156"/><polygon fill="#181818" points="160.6606,1387.5156,164.6606,1397.5156,168.6606,1387.5156,164.6606,1391.5156" style="stroke:#181818;stroke-width:1;"/><line style="stroke:#181818;stroke-width:1;" x1="164.6606" x2="164.6606" y1="1323.5469" y2="1343.5469"/><polygon fill="#181818" points="160.6606,1333.5469,164.6606,1343.5469,168.6606,1333.5469,164.6606,1337.5469" style="stroke:#181818;stroke-width:1;"/><line style="stroke:#181818;stroke-width:1;" x1="230.5891" x2="291.4146" y1="1551.4531" y2="1551.4531"/><polygon fill="#181818" points="287.4146,1462,291.4146,1452,295.4146,1462,291.4146,1458" style="stroke:#181818;stroke-width:1;"/><line style="stroke:#181818;stroke-width:1;" x1="291.4146" x2="291.4146" y1="1311.5469" y2="1551.4531"/><line style="stroke:#181818;stroke-width:1;" x1="291.4146" x2="176.6606" y1="1311.5469" y2="1311.5469"/><polygon fill="#181818" points="186.6606,1307.5469,176.6606,1311.5469,186.6606,1315.5469,182.6606,1311.5469" style="stroke:#181818;stroke-width:1;"/><line style="stroke:#181818;stroke-width:1;" x1="164.6606" x2="164.6606" y1="1563.4531" y2="1583.4531"/><polygon fill="#181818" points="160.6606,1573.4531,164.6606,1583.4531,168.6606,1573.4531,164.6606,1577.4531" style="stroke:#181818;stroke-width:1;"/><line style="stroke:#181818;stroke-width:1;" x1="164.6606" x2="164.6606" y1="1279.5469" y2="1299.5469"/><polygon fill="#181818" points="160.6606,1289.5469,164.6606,1299.5469,168.6606,1289.5469,164.6606,1293.5469" style="stroke:#181818;stroke-width:1;"/><line style="stroke:#181818;stroke-width:1;" x1="164.6606" x2="164.6606" y1="1607.4531" y2="1627.4531"/><polygon fill="#181818" points="160.6606,1617.4531,164.6606,1627.4531,168.6606,1617.4531,164.6606,1621.4531" style="stroke:#181818;stroke-width:1;"/><?plantuml-src dLD1JiCm4Bpd5JwcGeXxSa2b0Wa9eKf5tBV99btXU8Fj5CHl40TEl28VOvCwIWej0cxMU3qxCxjs7goFecG1rc89La6jAOFslNtZD4ekdsbDLddKe79KcaioQHHPh15yf5HoRGgsbRpBBEPeCW9ogLnGeUB52Abj-wef1tS-Ktw3HiKhgcPI9nJp39qJ1aVEOmLfZwujmeESK3jKyQse2TL14LhB4qLIQ78gWZ3rj24jp-xGY3rbU0kL756QYvHTwoYvQ5mcjxNblF7iHhSZCZ6wGeqPiUciWiUIBVLIaolItkxn1FlB7Q1oSZMRzcEB-f3xd08ji31RIsR3wG_EoKm8ZpaVMQikVV9etBxxkVROoNvim7YPZ6GPdvoTpYI6Ut8DQ7hfhGw2P4DqrcZ1F7lGnxAfeUopvc49bWCGLe2_Pt1qrWkMxYLzOVtpf4UXLsI2iHfpqJA8N3NT3XwGbjnGLU_bC1r5ngOWsVxmMtwxj_youJpNdm00?></g></svg>